<?xml version="1.0" encoding="UTF-8"?>
<!DOCTYPE svg PUBLIC "-//W3C//DTD SVG 1.1//EN" "http://www.w3.org/Graphics/SVG/1.1/DTD/svg11.dtd">
<!-- Creator: CorelDRAW X7 -->
<svg xmlns="http://www.w3.org/2000/svg" xml:space="preserve" width="8.15799in" height="5.706in" version="1.1" style="shape-rendering:geometricPrecision; text-rendering:geometricPrecision; image-rendering:optimizeQuality; fill-rule:evenodd; clip-rule:evenodd"
viewBox="0 0 8158 5706"
 xmlns:xlink="http://www.w3.org/1999/xlink">
 <defs>
  <style type="text/css">
   <![CDATA[
    .fil0 {fill:#6C331F}
    .fil3 {fill:#CD423B}
    .fil1 {fill:#DEDE18}
    .fil4 {fill:#EFAD35}
    .fil2 {fill:yellow}
   ]]>
  </style>
 </defs>
 <g id="Layer_x0020_1">
  <metadata id="CorelCorpID_0Corel-Layer"/>
  <g id="_2650663311152">
   <g id="__x0023_6c331fff">
    <g>
     <path class="fil0" d="M4696 50c107,-16 214,-36 322,-49 85,-9 165,74 152,160 -29,324 -55,649 -97,972 -14,110 -47,219 -107,313 148,-35 295,-74 440,-120 89,-32 196,31 211,124 8,62 5,125 8,187 30,-24 63,-44 96,-62 179,-99 356,-201 535,-299 85,-47 203,3 228,96 20,69 31,139 50,208 28,-78 52,-158 83,-235 28,-68 105,-109 177,-96 176,25 352,52 528,76 40,6 84,12 116,40 58,45 80,130 48,197 -171,382 -322,772 -453,1169 -18,40 4,81 14,120 99,347 240,681 366,1019 31,72 1,164 -68,202 -56,31 -118,49 -176,74 -169,71 -339,139 -506,217 -62,38 -146,44 -204,-5 -58,-41 -63,-117 -75,-181 -24,60 -37,126 -72,181 -29,41 -78,64 -127,65 -214,8 -427,14 -641,22 -38,2 -73,-11 -108,-25 -127,34 -252,73 -380,107 -93,29 -200,-45 -205,-143 -5,-160 -1,-322 -7,-482 -17,9 -24,25 -25,43 -21,135 -41,269 -63,403 -9,62 -56,115 -116,131 -195,52 -392,98 -588,147 -52,13 -109,31 -161,7 -44,-17 -73,-56 -95,-96 -79,36 -156,78 -235,113 -79,33 -177,-9 -209,-88 -66,-148 -130,-297 -194,-446 -10,121 -17,241 -25,362 -4,61 -47,117 -105,138 -199,79 -398,157 -598,234 -83,34 -174,-17 -212,-93 -184,18 -367,45 -549,72 -73,10 -148,-35 -173,-104 -26,-78 -43,-159 -68,-238 -10,91 -12,182 -22,273 -7,67 -61,122 -125,137 -199,55 -398,110 -597,164 -107,35 -225,-68 -206,-179 40,-434 77,-868 105,-1303 29,-477 55,-955 41,-1433 -5,-62 -2,-133 48,-178 60,-65 155,-43 234,-50 166,-12 333,-15 498,-34 102,-14 190,82 183,181 27,-57 53,-114 84,-168 21,-39 59,-66 102,-75 70,-16 141,-29 212,-44 31,-319 74,-636 92,-956 -46,-7 -97,-15 -128,-54 -51,-55 -36,-136 -44,-204 1,-69 -23,-146 17,-208 26,-42 73,-69 122,-68 219,-5 437,-38 652,-82 52,-16 97,31 148,16 147,-24 293,-51 437,-91 47,-17 96,1 137,27 71,-46 157,-28 236,-34 75,0 152,-21 225,3 109,-52 231,-58 348,-82 49,-13 98,5 139,33 78,-13 155,-31 233,-42 33,-7 66,5 97,14l0 0zm-41 63c-30,322 -57,644 -98,966 -9,61 -30,139 -102,151 -48,-29 -48,-89 -42,-138 35,-314 71,-627 107,-940l3 0c1,-16 3,-32 5,-48 -101,18 -202,36 -303,56 -33,310 -62,619 -80,930 -3,70 -10,141 -3,211 7,73 56,139 123,168 72,34 156,28 230,5 177,-42 304,-208 330,-384 48,-324 71,-650 102,-975 2,-15 5,-30 7,-45 -93,13 -185,30 -279,43l0 0zm-775 54c-31,169 -36,342 -54,512 -58,13 -116,24 -173,39l-6 -5c21,-162 40,-325 65,-488 1,-10 5,-30 7,-40 -100,7 -200,13 -300,11 -16,457 -64,913 -112,1368 33,-10 66,-21 98,-32 59,-19 119,-37 179,-54 22,-180 37,-360 55,-540 4,-2 13,-7 17,-10 54,-4 107,-14 159,-24 -20,190 -38,380 -60,570 39,-8 78,-16 117,-25 56,-13 112,-24 168,-36 8,-209 26,-418 43,-626 17,-211 39,-422 78,-630 4,-15 7,-30 11,-45 -98,16 -196,31 -292,55l0 0zm-1153 131c-86,444 -178,886 -268,1328 103,-22 205,-44 308,-67l-2 -13 9 -2c18,-86 27,-175 51,-260 52,0 103,-5 154,-10 -2,104 -5,208 -4,312 30,-8 61,-15 91,-22l0 -4c71,-16 142,-34 213,-51 -17,-421 -45,-842 -51,-1264 0,-13 1,-38 1,-50 -165,46 -334,75 -502,103l0 0zm-775 59c1,80 8,161 11,242 58,2 115,-1 172,-5 -14,362 -55,723 -97,1083 111,-29 224,-52 333,-87l-11 -1c29,-336 34,-674 77,-1009 53,-13 106,-25 159,-39 11,-73 16,-147 26,-220 2,-16 4,-32 7,-48 -223,46 -449,82 -677,84l0 0zm4747 980c-102,254 -171,520 -260,779 -42,-233 -111,-460 -158,-692 -5,-25 -12,-50 -17,-75 -171,93 -340,191 -510,284 -28,15 -55,33 -80,52 104,311 222,617 303,935 12,59 42,116 36,177 -118,399 -289,780 -452,1162 -34,-489 -73,-977 -108,-1466 -26,-361 -52,-721 -63,-1083l-10 1c-333,102 -675,174 -1017,237 -24,62 -28,128 -40,193 -91,537 -180,1074 -276,1610 -37,197 -65,396 -108,592 -22,-54 -54,-103 -82,-155 -137,-247 -274,-495 -428,-732 184,-132 330,-312 426,-515 32,-73 65,-147 75,-227 38,-115 41,-240 22,-358 -17,-104 -49,-213 -130,-285 -96,-85 -232,-101 -355,-94 -326,29 -650,105 -953,230 -20,10 -47,16 -60,38 -6,53 -1,107 -3,160 -5,450 -32,899 -62,1348 -22,314 -44,629 -73,943 -134,-303 -282,-600 -406,-907 -53,-128 -97,-260 -148,-388 10,-31 21,-61 36,-89 216,-435 454,-857 692,-1280 -239,65 -481,122 -724,170 -32,5 -41,41 -55,65 -136,273 -261,551 -398,824l-14 2c16,-273 39,-546 55,-819 -28,2 -55,5 -82,8 -183,8 -366,28 -549,26 -7,23 -13,46 -11,70 10,389 -5,778 -25,1167 -29,533 -73,1065 -123,1596 183,-50 366,-101 549,-150 25,-7 48,-18 70,-31 0,-10 -1,-29 -1,-38 15,-250 37,-500 54,-750 3,-66 14,-132 11,-198 19,-25 37,-51 56,-77 86,337 176,673 269,1008 212,-33 424,-62 638,-81 37,-4 77,-2 109,-23 -17,42 -19,88 -22,133 200,-78 401,-156 601,-235 16,-97 15,-197 25,-295 14,-227 39,-455 42,-683 13,-5 25,-10 37,-15 38,125 89,245 138,365 93,223 188,445 287,665 162,-83 327,-160 489,-242 -13,75 -26,150 -39,225 206,-50 414,-99 619,-154 34,-5 40,-42 42,-69 18,-155 51,-307 67,-462 3,-9 9,-26 12,-35 104,-13 209,-25 314,-37 3,215 5,430 6,645 182,-53 364,-102 546,-154 -10,22 -20,44 -30,66 207,-6 414,-13 621,-20 50,5 54,-56 68,-90 52,-159 105,-316 151,-476 17,-63 41,-124 44,-190 27,74 36,153 52,230 32,165 63,329 95,494 172,-79 348,-152 523,-226 63,-27 131,-45 190,-83 -7,-18 -15,-37 -22,-56 -140,-370 -296,-737 -389,-1123 144,-427 300,-850 486,-1261 -12,-1 -24,-1 -36,-1 -93,-18 -187,-29 -280,-42l3 -2c-87,-11 -173,-26 -260,-36l0 0zm-2758 341c46,33 89,70 122,116 80,107 108,241 126,370 29,-166 55,-333 84,-499 -22,-15 -44,-30 -66,-45 -87,25 -177,40 -266,58l0 0zm1702 261c26,470 65,940 99,1410 64,-159 121,-321 174,-484 17,-46 -10,-92 -19,-136 -69,-268 -163,-529 -254,-790l0 0zm-3618 1189c-9,21 -26,44 -13,68 79,220 167,437 265,650 34,-448 63,-896 79,-1344 -115,206 -225,415 -331,626l0 0zm2065 -394c-24,23 -22,59 -38,87 -85,167 -200,319 -340,443 75,124 147,249 220,375 57,-278 98,-560 151,-838 0,-20 27,-54 7,-67z"/>
    </g>
    <path class="fil0" d="M2940 509c4,-20 6,-44 29,-52 11,81 5,164 6,246 -1,125 3,250 1,375 -41,7 -82,14 -123,21l-5 1c30,-197 62,-394 92,-591z"/>
    <g>
     <path class="fil0" d="M5797 1158c313,-147 625,-295 938,-442 19,73 39,146 58,219 455,-28 910,-56 1365,-84 -213,383 -426,766 -640,1149 -31,-15 -62,-30 -94,-45 121,-289 243,-579 364,-868 -396,9 -791,18 -1187,26 -10,-45 -20,-91 -31,-136 -244,92 -488,186 -732,278 -14,-32 -27,-65 -41,-97l0 0zm160 -13c66,-13 126,-43 189,-65 155,-58 309,-120 465,-176 11,50 22,101 32,151 409,-4 818,-18 1227,-24 -111,278 -236,550 -342,830 43,-60 74,-127 111,-190 140,-253 282,-505 421,-759 -436,27 -872,54 -1308,81 -18,-66 -35,-132 -54,-198 -247,116 -495,231 -741,350z"/>
    </g>
    <g>
     <path class="fil0" d="M1567 1461c50,-71 135,-137 227,-119 93,22 130,135 113,220 -19,62 -94,72 -150,70 12,39 12,92 -25,118 -73,34 -189,0 -201,-89 -5,-45 41,-66 77,-76 -38,-28 -70,-79 -41,-124l0 0zm149 -57c-42,20 -80,51 -105,90 4,47 60,60 97,73 47,9 110,24 146,-18 6,-46 -3,-99 -37,-134 -27,-27 -69,-26 -101,-11l0 0zm-135 244c16,55 74,62 123,62 0,-18 1,-36 0,-53 -37,-26 -83,-16 -123,-9z"/>
    </g>
    <path class="fil0" d="M4826 1995c11,-1 35,-4 46,-5 11,191 16,382 21,573 6,229 19,458 22,687 -78,14 -155,28 -233,44 -6,1 -18,4 -23,5 55,-435 111,-869 167,-1304z"/>
    <g>
     <path class="fil0" d="M3049 2275c109,-18 218,-37 328,-34 52,3 111,11 145,54 31,43 15,100 -6,144 -42,82 -109,149 -174,213 -98,96 -207,186 -340,225 18,-200 37,-401 47,-602l0 0zm223 204c-4,53 -9,106 -12,159 60,-52 114,-110 162,-173 -50,3 -100,8 -150,14z"/>
    </g>
    <g>
     <path class="fil0" d="M7367 2899c44,-17 92,-3 137,3 65,12 135,45 158,112 22,63 -13,127 -33,186 -14,43 -60,78 -106,64 -60,-20 -92,-80 -116,-135 -25,-57 -70,-110 -67,-177 -1,-21 8,-43 27,-53l0 0zm25 46c13,80 60,147 94,218 14,26 56,71 82,34 23,-52 56,-111 40,-170 -41,-76 -141,-76 -216,-82z"/>
    </g>
    <g>
     <path class="fil0" d="M7508 3319c76,-40 162,29 168,106 -13,77 -104,141 -181,116 -86,-43 -81,-190 13,-222l0 0zm-20 121c4,22 15,52 42,53 43,-2 71,-38 96,-68 -14,-19 -27,-38 -43,-56 -44,-22 -104,21 -95,71z"/>
    </g>
    <g>
     <path class="fil0" d="M215 3610c88,-37 155,52 189,120 15,57 -53,85 -96,99 -99,28 -170,-97 -140,-181 9,-19 28,-30 47,-38l0 0zm-3 60c10,34 9,78 42,100 33,19 67,-8 98,-18 -20,-33 -38,-71 -73,-90 -22,-13 -46,4 -67,8z"/>
    </g>
    <g>
     <path class="fil0" d="M130 3900c79,-22 198,42 175,136 -18,76 -122,69 -176,39 -69,-32 -78,-150 1,-175l0 0zm8 111c27,36 77,27 116,26 8,-56 -50,-88 -99,-87 -30,3 -35,42 -17,61z"/>
    </g>
    <g>
     <path class="fil0" d="M341 4083c38,-15 78,14 88,50 32,96 46,220 -32,297 -77,73 -200,72 -292,29 -47,-21 -92,-64 -89,-119 1,-51 45,-87 87,-108 44,-24 96,-30 142,-51 35,-30 52,-79 96,-98l0 0zm-101 160c-56,18 -123,27 -161,77 -23,34 11,71 41,85 77,41 191,45 251,-28 51,-75 27,-173 -5,-251 -42,39 -67,102 -126,117z"/>
    </g>
    <g>
     <path class="fil0" d="M6328 4419c85,-37 191,50 167,140 -19,60 -91,74 -146,76 -53,4 -124,-12 -138,-72 -15,-73 56,-124 117,-144l0 0zm39 51c-43,7 -101,27 -104,79 30,49 104,31 151,20 66,-22 5,-117 -47,-99z"/>
    </g>
    <g>
     <path class="fil0" d="M253 4652c33,5 67,11 101,17 -23,229 -45,459 -68,688 428,-116 855,-233 1283,-349 -1,57 -2,113 -3,170 238,-72 475,-146 713,-219 12,32 24,64 36,96 -326,151 -652,301 -978,451 3,-68 7,-137 10,-205 -449,135 -898,270 -1347,405 84,-352 169,-703 253,-1054l0 0zm-176 970c116,-27 229,-67 343,-100 329,-98 657,-198 985,-296 -3,64 -6,127 -8,191 265,-123 532,-239 792,-369 -228,60 -452,139 -679,204 1,-57 2,-114 2,-172 -429,117 -858,235 -1288,351 21,-234 48,-467 67,-701 -72,297 -143,594 -214,892z"/>
    </g>
   </g>
   <g id="__x0023_dede18ff">
    <path class="fil1" d="M4655 113c94,-13 186,-30 279,-43 -2,15 -5,30 -7,45 -57,8 -113,17 -169,26 -31,314 -57,628 -97,941 -11,67 -27,151 -97,181 -40,19 -79,-7 -109,-33 72,-12 93,-90 102,-151 41,-322 68,-644 98,-966z"/>
    <path class="fil1" d="M4225 160c101,-20 202,-38 303,-56 -2,16 -4,32 -5,48l-3 0c-66,9 -132,22 -197,37 -39,337 -66,674 -85,1013 -2,66 -4,142 42,195 52,63 140,68 215,77 -74,23 -158,29 -230,-5 -67,-29 -116,-95 -123,-168 -7,-70 0,-141 3,-211 18,-311 47,-620 80,-930z"/>
    <path class="fil1" d="M3880 167c96,-24 194,-39 292,-55 -4,15 -7,30 -11,45 -65,10 -129,22 -192,39 -19,131 -29,264 -39,396 -3,39 -6,79 -19,115 -60,25 -125,36 -189,46 -30,10 -49,-19 -69,-35 57,-15 115,-26 173,-39 18,-170 23,-343 54,-512z"/>
    <path class="fil1" d="M3419 196c100,2 200,-4 300,-11 -2,10 -6,30 -7,40 -68,1 -137,4 -204,7 -10,334 -42,667 -75,999 -10,100 -24,201 -28,301 -32,11 -65,22 -98,32 48,-455 96,-911 112,-1368z"/>
    <path class="fil1" d="M2727 298c168,-28 337,-57 502,-103 0,12 -1,37 -1,50 -103,24 -207,46 -311,63 -38,7 -77,11 -111,28 -11,29 -16,60 -22,90 -71,387 -159,771 -230,1158 70,-12 140,-27 211,-38l2 13c-103,23 -205,45 -308,67 90,-442 182,-884 268,-1328z"/>
    <path class="fil1" d="M1952 357c228,-2 454,-38 677,-84 -3,16 -5,32 -7,48 -196,36 -394,61 -593,74 1,56 3,111 6,166 58,-4 116,-5 174,1 -1,360 -55,717 -86,1074 79,-15 156,-45 237,-47l11 1c-109,35 -222,58 -333,87 42,-360 83,-721 97,-1083 -57,4 -114,7 -172,5 -3,-81 -10,-162 -11,-242z"/>
    <path class="fil1" d="M2967 436c24,-6 50,-14 75,-8 22,20 16,53 19,80 1,167 -1,333 3,499 -1,35 4,73 -12,105 -51,18 -106,26 -160,29 -25,4 -29,-27 -39,-42 41,-7 82,-14 123,-21 2,-125 -2,-250 -1,-375 -1,-82 5,-165 -6,-246 0,-6 -2,-16 -2,-21z"/>
    <path class="fil1" d="M3656 928c73,-50 164,-50 249,-58 6,111 -16,221 -24,331 -6,82 -31,166 -9,248 -39,9 -78,17 -117,25 22,-190 40,-380 60,-570 -52,10 -105,20 -159,24z"/>
    <path class="fil1" d="M2825 1284c66,-45 153,-40 228,-35 26,102 -1,208 13,311l0 4c-30,7 -61,14 -91,22 -1,-104 2,-208 4,-312 -51,5 -102,10 -154,10z"/>
    <path class="fil1" d="M6699 1337c87,10 173,25 260,36l-3 2c-6,4 -16,11 -21,15 100,8 199,37 301,27 12,0 24,0 36,1 -186,411 -342,834 -486,1261 -3,-70 28,-135 49,-201 89,-266 188,-528 295,-787 31,-77 66,-152 94,-230 -136,-20 -271,-40 -406,-59 -76,192 -131,391 -194,587 -22,61 -29,130 -68,182 -44,41 -121,5 -117,-55 89,-259 158,-525 260,-779z"/>
    <path class="fil1" d="M5754 1633c170,-93 339,-191 510,-284 5,25 12,50 17,75 -53,58 -127,87 -194,126 -83,48 -169,91 -248,144 104,296 212,591 290,895 15,66 49,132 30,200 -108,357 -255,701 -402,1043 -26,57 -42,120 -78,172 -36,45 -129,19 -118,-45 163,-382 334,-763 452,-1162 6,-61 -24,-118 -36,-177 -81,-318 -199,-624 -303,-935 25,-19 52,-37 80,-52z"/>
    <path class="fil1" d="M4363 1648c342,-63 684,-135 1017,-237 -7,32 11,86 -35,90 -280,79 -566,138 -851,195 -109,627 -212,1255 -325,1881 -25,138 -49,277 -72,415 -7,42 -23,81 -41,118 6,59 1,119 -10,177 139,-29 277,-65 415,-101 26,-6 58,-17 77,10 -2,27 -8,64 -42,69 -205,55 -413,104 -619,154 13,-75 26,-150 39,-225 -162,82 -327,159 -489,242 -99,-220 -194,-442 -287,-665 -49,-120 -100,-240 -138,-365 -12,5 -24,10 -37,15 2,-28 -9,-65 20,-83 42,-34 129,-63 156,3 114,327 258,642 394,960 133,-54 258,-128 391,-182 0,22 0,44 0,66 20,-8 39,-16 59,-23 -16,-40 -30,-80 -46,-119 43,-196 71,-395 108,-592 96,-536 185,-1073 276,-1610 12,-65 16,-131 40,-193z"/>
    <path class="fil1" d="M2514 1907c303,-125 627,-201 953,-230 91,18 189,16 270,65 -73,-4 -147,-14 -220,-7 -313,31 -622,106 -914,223 -8,778 -70,1554 -130,2329 -3,68 -25,136 -11,205 142,-59 284,-116 429,-168 2,25 4,50 7,75 -200,79 -401,157 -601,235 3,-45 5,-91 22,-133 -32,21 -72,19 -109,23 -214,19 -426,48 -638,81 -93,-335 -183,-671 -269,-1008 -19,26 -37,52 -56,77 -8,-65 38,-118 79,-162 26,-31 78,-30 104,-1 15,20 21,45 29,68 71,287 149,572 226,857 8,21 12,62 44,51 195,-27 390,-56 586,-69 0,-7 0,-15 1,-22 29,-314 51,-629 73,-943 30,-449 57,-898 62,-1348 2,-53 -3,-107 3,-160 13,-22 40,-28 60,-38z"/>
    <path class="fil1" d="M1766 1902c243,-48 485,-105 724,-170 -238,423 -476,845 -692,1280 -15,28 -26,58 -36,89 -6,-26 -8,-54 4,-79 193,-403 417,-791 630,-1184 -121,21 -238,56 -358,80 -57,14 -116,18 -171,40 -18,15 -28,37 -39,58 -122,252 -242,506 -363,760 -16,33 -41,68 -81,73 -34,11 -61,-13 -86,-31 5,-9 10,-18 15,-27 137,-273 262,-551 398,-824 14,-24 23,-60 55,-65z"/>
    <path class="fil1" d="M4846 1908c53,-25 154,-47 172,31 21,244 18,490 28,736 4,188 18,376 18,564 -1,43 -43,64 -80,69 -82,14 -163,32 -245,45 -32,8 -59,-10 -84,-26 9,-11 18,-22 27,-33 78,-16 155,-30 233,-44 -3,-229 -16,-458 -22,-687 -5,-191 -10,-382 -21,-573 -11,1 -35,4 -46,5 -30,-18 -1,-70 20,-87z"/>
    <path class="fil1" d="M723 2008c183,2 366,-18 549,-26 22,4 44,9 66,13 0,11 0,32 0,43 -158,14 -316,18 -474,29 11,883 -65,1763 -140,2642 148,-35 293,-83 441,-118 4,7 13,23 17,31 0,9 1,28 1,38 -22,13 -45,24 -70,31 -183,49 -366,100 -549,150 50,-531 94,-1063 123,-1596 20,-389 35,-778 25,-1167 -2,-24 4,-47 11,-70z"/>
    <path class="fil1" d="M3280 2146c107,-12 223,-24 323,26 75,37 101,134 76,211 -32,103 -105,186 -179,262 -105,105 -218,210 -358,267 -46,24 -132,36 -140,-35 133,-39 242,-129 340,-225 65,-64 132,-131 174,-213 21,-44 37,-101 6,-144 -34,-43 -93,-51 -145,-54 -110,-3 -219,16 -328,34 -9,-33 -8,-78 28,-94 65,-23 135,-24 203,-35z"/>
    <path class="fil1" d="M3851 2592c25,-60 48,-121 79,-178 -10,80 -43,154 -75,227 -96,203 -242,383 -426,515 -23,-40 9,-76 40,-97 165,-119 296,-283 382,-467z"/>
    <path class="fil1" d="M6364 3341c28,-36 95,-33 115,10 24,58 26,122 39,183 33,164 61,328 96,492 189,-69 367,-168 561,-224 7,19 15,38 22,56 -59,38 -127,56 -190,83 -175,74 -351,147 -523,226 -32,-165 -63,-329 -95,-494 -16,-77 -25,-156 -52,-230 3,-35 3,-74 27,-102z"/>
    <path class="fil1" d="M4836 3576c64,-5 129,-22 193,-14 38,8 52,49 51,83 4,177 2,355 6,532 144,-36 286,-83 430,-116 -9,28 -20,55 -29,82 24,-1 47,-5 71,-6 1,-32 3,-63 5,-94 27,22 54,44 80,66 125,-1 250,-7 374,-11 42,-2 84,4 125,11 -14,34 -18,95 -68,90 -207,7 -414,14 -621,20 10,-22 20,-44 30,-66 -182,52 -364,101 -546,154 -1,-215 -3,-430 -6,-645 -105,12 -210,24 -314,37 -3,9 -9,26 -12,35 4,-42 -12,-106 37,-128 62,-21 130,-20 194,-30z"/>
   </g>
   <g id="__x0023_ffff00ff">
    <path class="fil2" d="M4758 141c56,-9 112,-18 169,-26 -31,325 -54,651 -102,975 -26,176 -153,342 -330,384 -75,-9 -163,-14 -215,-77 -46,-53 -44,-129 -42,-195 19,-339 46,-676 85,-1013 65,-15 131,-28 197,-37 -36,313 -72,626 -107,940 -6,49 -6,109 42,138 30,26 69,52 109,33 70,-30 86,-114 97,-181 40,-313 66,-627 97,-941z"/>
    <path class="fil2" d="M3969 196c63,-17 127,-29 192,-39 -39,208 -61,419 -78,630 -17,208 -35,417 -43,626 -56,12 -112,23 -168,36 -22,-82 3,-166 9,-248 8,-110 30,-220 24,-331 -85,8 -176,8 -249,58 -4,3 -13,8 -17,10 -18,180 -33,360 -55,540 -60,17 -120,35 -179,54 4,-100 18,-201 28,-301 33,-332 65,-665 75,-999 67,-3 136,-6 204,-7 -25,163 -44,326 -65,488l6 5c20,16 39,45 69,35 64,-10 129,-21 189,-46 13,-36 16,-76 19,-115 10,-132 20,-265 39,-396z"/>
    <g>
     <path class="fil2" d="M2917 308c104,-17 208,-39 311,-63 6,422 34,843 51,1264 -71,17 -142,35 -213,51 -14,-103 13,-209 -13,-311 -75,-5 -162,-10 -228,35 -24,85 -33,174 -51,260l-9 2c-71,11 -141,26 -211,38 71,-387 159,-771 230,-1158 6,-30 11,-61 22,-90 34,-17 73,-21 111,-28l0 0zm50 128c0,5 2,15 2,21 -23,8 -25,32 -29,52 -30,197 -62,394 -92,591l5 -1c10,15 14,46 39,42 54,-3 109,-11 160,-29 16,-32 11,-70 12,-105 -4,-166 -2,-332 -3,-499 -3,-27 3,-60 -19,-80 -25,-6 -51,2 -75,8z"/>
    </g>
    <path class="fil2" d="M2029 395c199,-13 397,-38 593,-74 -10,73 -15,147 -26,220 -53,14 -106,26 -159,39 -43,335 -48,673 -77,1009 -81,2 -158,32 -237,47 31,-357 85,-714 86,-1074 -58,-6 -116,-5 -174,-1 -3,-55 -5,-110 -6,-166z"/>
    <path class="fil2" d="M6935 1390c5,-4 15,-11 21,-15 93,13 187,24 280,42 -102,10 -201,-19 -301,-27z"/>
    <g>
     <path class="fil2" d="M5380 1411l10 -1c11,362 37,722 63,1083 35,489 74,977 108,1466 -11,64 82,90 118,45 36,-52 52,-115 78,-172 147,-342 294,-686 402,-1043 19,-68 -15,-134 -30,-200 -78,-304 -186,-599 -290,-895 79,-53 165,-96 248,-144 67,-39 141,-68 194,-126 47,232 116,459 158,692 -4,60 73,96 117,55 39,-52 46,-121 68,-182 63,-196 118,-395 194,-587 135,19 270,39 406,59 -28,78 -63,153 -94,230 -107,259 -206,521 -295,787 -21,66 -52,131 -49,201 93,386 249,753 389,1123 -194,56 -372,155 -561,224 -35,-164 -63,-328 -96,-492 -13,-61 -15,-125 -39,-183 -20,-43 -87,-46 -115,-10 -24,28 -24,67 -27,102 -3,66 -27,127 -44,190 -46,160 -99,317 -151,476 -41,-7 -83,-13 -125,-11 -124,4 -249,10 -374,11 -26,-22 -53,-44 -80,-66 -2,31 -4,62 -5,94 -24,1 -47,5 -71,6 9,-27 20,-54 29,-82 -144,33 -286,80 -430,116 -4,-177 -2,-355 -6,-532 1,-34 -13,-75 -51,-83 -64,-8 -129,9 -193,14 -64,10 -132,9 -194,30 -49,22 -33,86 -37,128 -16,155 -49,307 -67,462 -19,-27 -51,-16 -77,-10 -138,36 -276,72 -415,101 11,-58 16,-118 10,-177 18,-37 34,-76 41,-118 23,-138 47,-277 72,-415 113,-626 216,-1254 325,-1881 285,-57 571,-116 851,-195 46,-4 28,-58 35,-90l0 0zm-534 497c-21,17 -50,69 -20,87 -56,435 -112,869 -167,1304 5,-1 17,-4 23,-5 -9,11 -18,22 -27,33 25,16 52,34 84,26 82,-13 163,-31 245,-45 37,-5 79,-26 80,-69 0,-188 -14,-376 -18,-564 -10,-246 -7,-492 -28,-736 -18,-78 -119,-56 -172,-31z"/>
    </g>
    <g>
     <path class="fil2" d="M3467 1677c123,-7 259,9 355,94 81,72 113,181 130,285 19,118 16,243 -22,358 -31,57 -54,118 -79,178 -86,184 -217,348 -382,467 -31,21 -63,57 -40,97 154,237 291,485 428,732 28,52 60,101 82,155 16,39 30,79 46,119 -20,7 -39,15 -59,23 0,-22 0,-44 0,-66 -133,54 -258,128 -391,182 -136,-318 -280,-633 -394,-960 -27,-66 -114,-37 -156,-3 -29,18 -18,55 -20,83 -3,228 -28,456 -42,683 -10,98 -9,198 -25,295 -3,-25 -5,-50 -7,-75 -145,52 -287,109 -429,168 -14,-69 8,-137 11,-205 60,-775 122,-1551 130,-2329 292,-117 601,-192 914,-223 73,-7 147,3 220,7 -81,-49 -179,-47 -270,-65l0 0zm-187 469c-68,11 -138,12 -203,35 -36,16 -37,61 -28,94 -10,201 -29,402 -47,602 8,71 94,59 140,35 140,-57 253,-162 358,-267 74,-76 147,-159 179,-262 25,-77 -1,-174 -76,-211 -100,-50 -216,-38 -323,-26z"/>
    </g>
    <path class="fil2" d="M2038 1918c120,-24 237,-59 358,-80 -213,393 -437,781 -630,1184 -12,25 -10,53 -4,79 51,128 95,260 148,388 124,307 272,604 406,907 -1,7 -1,15 -1,22 -196,13 -391,42 -586,69 -32,11 -36,-30 -44,-51 -77,-285 -155,-570 -226,-857 -8,-23 -14,-48 -29,-68 -26,-29 -78,-30 -104,1 -41,44 -87,97 -79,162 3,66 -8,132 -11,198 -17,250 -39,500 -54,750 -4,-8 -13,-24 -17,-31 -148,35 -293,83 -441,118 75,-879 151,-1759 140,-2642 158,-11 316,-15 474,-29 0,-11 0,-32 0,-43 -22,-4 -44,-9 -66,-13 27,-3 54,-6 82,-8 -16,273 -39,546 -55,819l14 -2c-5,9 -10,18 -15,27 25,18 52,42 86,31 40,-5 65,-40 81,-73 121,-254 241,-508 363,-760 11,-21 21,-43 39,-58 55,-22 114,-26 171,-40z"/>
   </g>
   <g id="__x0023_cd423bff">
    <path class="fil3" d="M5957 1145c246,-119 494,-234 741,-350 19,66 36,132 54,198 436,-27 872,-54 1308,-81 -139,254 -281,506 -421,759 -37,63 -68,130 -111,190 106,-280 231,-552 342,-830 -409,6 -818,20 -1227,24 -10,-50 -21,-101 -32,-151 -156,56 -310,118 -465,176 -63,22 -123,52 -189,65z"/>
    <path class="fil3" d="M77 5622c71,-298 142,-595 214,-892 -19,234 -46,467 -67,701 430,-116 859,-234 1288,-351 0,58 -1,115 -2,172 227,-65 451,-144 679,-204 -260,130 -527,246 -792,369 2,-64 5,-127 8,-191 -328,98 -656,198 -985,296 -114,33 -227,73 -343,100z"/>
   </g>
   <g id="__x0023_efad35ff">
    <path class="fil4" d="M1716 1404c32,-15 74,-16 101,11 34,35 43,88 37,134 -36,42 -99,27 -146,18 -37,-13 -93,-26 -97,-73 25,-39 63,-70 105,-90z"/>
    <path class="fil4" d="M1581 1648c40,-7 86,-17 123,9 1,17 0,35 0,53 -49,0 -107,-7 -123,-62z"/>
    <path class="fil4" d="M7392 2945c75,6 175,6 216,82 16,59 -17,118 -40,170 -26,37 -68,-8 -82,-34 -34,-71 -81,-138 -94,-218z"/>
    <path class="fil4" d="M7488 3440c-9,-50 51,-93 95,-71 16,18 29,37 43,56 -25,30 -53,66 -96,68 -27,-1 -38,-31 -42,-53z"/>
    <path class="fil4" d="M212 3670c21,-4 45,-21 67,-8 35,19 53,57 73,90 -31,10 -65,37 -98,18 -33,-22 -32,-66 -42,-100z"/>
    <path class="fil4" d="M138 4011c-18,-19 -13,-58 17,-61 49,-1 107,31 99,87 -39,1 -89,10 -116,-26z"/>
    <path class="fil4" d="M240 4243c59,-15 84,-78 126,-117 32,78 56,176 5,251 -60,73 -174,69 -251,28 -30,-14 -64,-51 -41,-85 38,-50 105,-59 161,-77z"/>
    <path class="fil4" d="M6367 4470c52,-18 113,77 47,99 -47,11 -121,29 -151,-20 3,-52 61,-72 104,-79z"/>
   </g>
  </g>
 </g>
</svg>
