<?xml version="1.0" encoding="UTF-8"?>
<!DOCTYPE svg PUBLIC "-//W3C//DTD SVG 1.1//EN" "http://www.w3.org/Graphics/SVG/1.1/DTD/svg11.dtd">
<!-- Creator: CorelDRAW X7 -->
<svg xmlns="http://www.w3.org/2000/svg" xml:space="preserve" width="3.79465in" height="1.7448in" version="1.1" style="shape-rendering:geometricPrecision; text-rendering:geometricPrecision; image-rendering:optimizeQuality; fill-rule:evenodd; clip-rule:evenodd"
viewBox="0 0 3795 1745"
 xmlns:xlink="http://www.w3.org/1999/xlink">
 <defs>
  <style type="text/css">
   <![CDATA[
    .fil0 {fill:none}
    .fil3 {fill:#031402}
    .fil5 {fill:#767268}
    .fil4 {fill:#F26F05}
    .fil2 {fill:white}
    .fil1 {fill:white}
   ]]>
  </style>
 </defs>
 <g id="Layer_x0020_1">
  <metadata id="CorelCorpID_0Corel-Layer"/>
  <rect class="fil0" width="3795" height="1745"/>
  <g id="_2242135196928">
   <g>
    <g>
     <path class="fil1" d="M2704 1461c-2,4 -6,6 -10,8 -4,2 -9,3 -14,1 -1,1 -1,3 -2,4 -5,4 -10,6 -16,6 -3,-1 -5,-1 -8,-1 -11,-1 -19,-9 -19,-20 0,-3 1,-6 1,-9 -15,-10 -14,-27 -14,-45 0,-1 0,-3 1,-4 -2,0 -3,-1 -5,-1 -8,-2 -11,-6 -18,-8 -3,0 -6,-1 -9,-3 -2,-2 -4,-4 -7,-5 -1,-2 -3,-3 -4,-5 -5,1 -10,1 -15,-1 -3,-2 -5,-3 -8,-4 -7,-4 -11,-10 -11,-18 0,-2 0,-5 0,-7 -1,-11 7,-19 18,-20 3,0 6,-1 9,-1 5,0 10,2 15,6 2,2 3,4 4,6 2,-2 3,-4 6,-6 0,0 -1,0 -1,0 -4,-5 -6,-10 -6,-16 1,-9 4,-17 9,-24 0,-1 0,-2 0,-3 -3,-3 -4,-7 -4,-12 -9,0 -18,0 -26,-1 -12,0 -24,-2 -35,-1 -3,1 -5,3 -7,4 -13,9 -24,15 -40,12 -5,0 -10,-1 -15,-3 -5,-3 -10,-7 -15,-10 -2,-1 -4,-4 -7,-5 -11,3 -22,9 -33,12 -8,3 -16,1 -21,-5 -10,-12 -32,-9 -45,-7 -12,3 -24,0 -32,-8 0,0 0,0 -1,0 -7,-3 -11,-11 -10,-19 0,-1 0,-3 0,-4 -32,-3 -63,-8 -94,-7 -1,0 -2,0 -3,0 -3,8 -10,14 -22,14 -18,1 -36,3 -54,3 -5,2 -10,2 -15,0 -4,-2 -7,-4 -9,-7 -4,1 -8,1 -13,-1 -15,5 -23,13 -41,12 -29,1 -55,8 -85,-2 -4,-1 -13,4 -17,6 -2,1 -4,1 -6,2 -3,0 -7,0 -10,0 -7,-1 -12,-3 -18,-5 -1,-1 -7,-3 -8,-3 0,0 -1,0 -1,1 -27,4 -53,2 -79,3 -14,1 -26,-4 -38,-4 -17,1 -34,2 -49,4 -6,1 -11,2 -17,1 -12,0 -26,-5 -38,-4 0,0 -1,0 -1,0 -6,0 -11,0 -16,2 -26,7 -47,23 -75,29 0,0 -1,0 -1,0 -18,2 -37,4 -55,6 -8,6 -16,9 -26,9 -7,0 -12,-2 -16,-7 -31,1 -60,-5 -91,-5 0,0 -1,0 -1,0 -2,0 -3,1 -5,1 -4,2 -9,4 -13,7 -8,5 -16,9 -25,11 -2,0 -3,1 -5,1 -19,-1 -31,-10 -44,-21 -9,1 -20,8 -28,12 -8,5 -18,3 -24,-4 -12,-12 -32,-11 -47,-7 -6,3 -12,3 -19,0 -11,-4 -15,-11 -21,-19 -3,-4 -5,-9 -5,-13 -31,-3 -61,-8 -92,-8 -1,1 -1,1 -1,2 -3,7 -9,11 -16,12 -23,3 -44,6 -67,4 -7,-1 -12,-5 -15,-10 -13,0 -25,4 -36,9 -2,1 -4,2 -6,2 -23,3 -46,4 -68,6 -4,1 -7,0 -11,0 -6,-1 -20,-5 -26,-5 -5,2 -9,5 -13,8 -6,3 -12,4 -18,1 -7,-3 -21,-10 -28,-9 -1,0 -1,0 -1,0 -29,3 -59,4 -89,3 0,0 -1,0 -2,0 -24,-3 -50,0 -75,-2 -6,-1 -10,-4 -14,-9 -1,-1 -1,-2 -2,-3 -29,0 -57,-1 -86,-3 -6,0 -12,-3 -16,-8 -6,-6 -6,-11 -7,-18 -1,-1 -1,-2 -1,-3 -81,0 -161,2 -242,-1 -8,0 -15,-5 -18,-13 -3,-8 0,-17 6,-22 15,-12 32,-22 50,-27 14,-10 27,-24 40,-35 0,0 0,-1 1,-1 3,-3 8,-5 12,-6 6,-2 10,-1 15,-1 8,-8 16,-15 24,-22 -2,-3 -3,-7 -4,-10 -2,-7 -1,-12 3,-17 4,-5 9,-8 15,-8 5,0 9,0 13,1 -2,-4 -5,-8 -8,-12 -4,-6 -5,-13 -2,-20 1,0 1,0 1,0 -2,-3 -4,-6 -5,-9 0,-1 0,-1 0,-1 -6,-14 -1,-22 3,-34 2,-5 6,-9 11,-11 1,-7 6,-13 14,-15 8,-3 17,1 22,9 -4,-13 -7,-26 -2,-38 -1,-3 -1,-6 -1,-9 0,-9 3,-21 2,-29 -1,-4 0,-7 1,-10 3,-8 5,-16 6,-24 1,-3 2,-6 4,-9 1,-1 2,-2 2,-4 5,-12 4,-23 12,-36 0,0 0,0 0,-1 7,-11 17,-22 24,-34 0,0 0,-1 1,-1 0,0 0,-1 0,-1 -7,-23 -12,-46 -17,-70 -1,-5 0,-10 3,-15 6,-10 14,-17 23,-24 3,-3 6,-4 11,-4 4,-1 8,-1 12,-1 0,-19 2,-38 2,-58 1,-22 13,-47 38,-50 15,-2 30,-3 45,-4 7,-15 13,-31 24,-45 0,0 0,0 0,-1 21,-26 51,-33 82,-42 0,0 0,0 1,0 105,-25 212,-33 319,-42 13,-32 29,-63 44,-94 7,-13 13,-25 24,-33 15,-13 33,-18 51,-23 0,0 0,0 0,0 1,0 1,0 1,0 120,-31 242,-50 366,-61 0,0 0,0 0,0 34,-2 67,4 101,8 0,0 0,0 1,0 108,17 216,33 324,55 23,3 42,22 46,45 6,32 11,65 17,97 0,1 0,1 0,2 1,8 2,17 3,26 5,-1 10,-2 14,-3 7,-1 13,0 17,5 5,4 7,10 7,16 0,3 -1,5 -1,8 4,5 6,10 9,17 1,5 1,11 -1,16 0,1 1,3 2,5 4,-2 7,-3 11,-3 1,-4 2,-8 3,-12 -6,-5 -9,-12 -7,-20 1,-5 5,-10 9,-12 0,-2 1,-3 2,-5 2,-6 7,-11 14,-12 6,-1 13,0 17,5 2,-1 4,-2 5,-2 -3,-3 -6,-6 -9,-11 -2,-5 -2,-10 0,-15 0,-2 1,-4 2,-6 2,-5 5,-9 10,-11 9,-5 20,-4 28,3 6,7 8,17 5,26 -3,10 -11,16 -19,18 5,3 8,8 8,14 0,5 -1,11 0,17 4,2 9,4 13,5 4,1 6,1 9,3 5,-2 11,-1 16,2 2,1 4,2 6,4 1,-1 2,-2 4,-3 4,-3 10,-3 14,-2 9,-10 21,-16 33,-17 0,-7 0,-14 1,-20 0,-5 2,-10 6,-13 -2,-5 -3,-11 -3,-18 0,-5 2,-10 7,-14 4,-4 9,-5 15,-5 1,0 3,1 4,1 2,-6 6,-10 11,-13 6,-3 13,-2 18,1 1,0 1,0 1,0 7,-4 15,-4 21,0 4,3 6,6 7,9 7,5 12,12 16,21 2,4 3,8 2,13 -2,7 -3,14 -5,22 0,1 -1,2 -1,3 -2,4 -4,7 -6,9 0,1 0,2 1,3 1,6 -1,11 -4,16 -2,2 -4,4 -5,5 2,1 4,2 6,3 1,0 1,0 2,-1 5,-3 12,-4 18,-1 2,1 5,2 7,3 7,3 12,9 12,17 1,5 0,9 -2,14 5,0 10,2 13,6 2,2 4,5 6,8 4,-11 11,-19 23,-23 6,-2 12,-1 17,2 5,4 8,9 9,15 0,0 0,0 0,1 0,0 1,0 2,1 3,-3 5,-5 8,-8 7,-6 17,-7 25,-1 5,4 9,8 13,13 0,-1 1,-3 1,-4 1,-1 1,-2 2,-3 1,-1 2,-3 2,-4 0,0 0,0 0,0 12,-48 25,-94 37,-141 2,-9 9,-15 19,-15 54,-1 108,-1 163,-1 20,-1 41,1 59,10 6,-7 15,-11 26,-10 258,0 515,0 772,0 6,0 12,3 16,8 4,5 5,11 3,17 -12,40 -20,81 -33,121 -2,8 -10,14 -19,14 -13,-1 -27,-1 -40,-1 -5,19 -10,38 -15,57 31,9 60,27 80,55 24,34 29,78 21,118 -12,56 -29,111 -42,166 -7,27 -19,52 -36,74 1,7 0,11 0,16 2,2 4,4 5,6 4,-7 11,-10 19,-10 8,1 15,7 17,15 0,1 1,1 2,2 7,5 9,14 7,22 -1,2 -2,3 -2,5 22,0 30,30 14,45 -4,3 -7,4 -12,5 -22,1 -32,-26 -20,-41 -2,0 -5,0 -7,0 0,5 -1,11 -4,15 -5,8 -11,12 -18,16 -1,1 -3,2 -4,3 5,10 7,21 3,32 0,2 -1,3 -1,4 0,1 0,2 1,4 1,7 -2,15 -8,20 3,-1 7,0 10,1 18,6 22,32 6,44 -2,1 -5,3 -8,4 1,0 1,1 1,1 1,4 2,7 1,11 1,1 2,1 3,2 5,-1 9,0 13,3 5,3 8,8 9,14 0,2 0,3 1,4 0,6 -2,12 -6,16 -3,3 -7,5 -11,6 1,2 1,4 1,5 6,0 11,2 15,6 5,4 7,9 7,15 -1,8 1,13 -4,21 -3,6 -8,10 -15,11 -2,0 -9,1 -11,1 -13,12 -29,7 -40,-4 -3,-2 -6,-5 -8,-7 -4,-3 -6,-7 -7,-11 -1,0 -2,-1 -2,-2 -3,-2 -5,-4 -7,-6 -12,7 -26,7 -37,1 -1,3 -2,5 -3,7 1,5 0,10 -2,13 5,8 7,19 -1,28 -2,4 -6,6 -10,8 -1,4 -3,8 -7,10 -6,5 -14,6 -21,2 -6,-3 -12,-5 -18,-7 -10,5 -22,5 -30,-2 -1,3 -2,5 -4,7 -1,0 -1,0 -2,1 1,1 1,2 1,2 4,3 8,8 10,14 0,1 0,1 0,2 3,14 -1,27 -16,32 1,9 -1,18 -7,26 -5,6 -13,9 -21,7 -10,-3 -18,-9 -22,-18 0,0 0,0 -1,0 -9,0 -17,-7 -18,-17 -1,-3 -1,-6 -1,-8 -1,-3 -1,-5 0,-7 -2,0 -4,-1 -5,-2 -1,0 -2,-1 -3,-1 -2,1 -4,1 -7,1 -10,0 -20,-3 -29,-9 -5,-4 -8,-10 -8,-16 -13,7 -29,2 -43,-6 -2,2 -4,4 -7,6 -6,3 -13,2 -19,-1 -2,-1 -3,-2 -4,-3 -7,9 -17,16 -30,16 -3,0 -7,0 -9,-2 -4,4 -8,6 -13,7 -3,0 -6,0 -9,1 -6,0 -11,-1 -15,-5 -4,-3 -6,-7 -6,-10 -3,-2 -5,-5 -6,-8 -3,-7 -6,-13 -8,-20 -2,-8 0,-16 7,-21 1,-1 2,-2 3,-2 1,-3 3,-5 5,-7 2,-1 4,-3 5,-3 1,-3 1,-5 1,-7 0,-1 0,-2 0,-4 -5,-5 -9,-12 -12,-19 -1,-1 -1,-1 -1,-2 -4,-1 -7,-4 -10,-8 -3,-4 -4,-7 -4,-11 0,-5 0,-11 0,-16 0,0 0,0 0,0 -3,-1 -6,-2 -9,-5 -4,-3 -8,-7 -12,-11 0,0 0,0 0,0 -2,1 -4,2 -6,3 -1,0 -2,1 -3,1 -4,1 -8,2 -12,2 0,1 0,1 0,2 1,3 1,5 2,8 1,8 -2,15 -7,19 0,4 0,7 -1,11 1,0 2,1 3,1 5,4 8,9 8,16 1,6 -2,12 -7,16 -4,3 -7,5 -10,6 -1,0 -2,1 -3,2 -1,0 -3,3 -4,4 -6,7 -11,13 -18,17 0,1 1,2 1,4 2,9 -3,19 -12,22 -3,1 -7,2 -10,3 -2,4 -6,7 -10,8 2,3 3,6 4,10 0,3 0,6 -1,9 -2,6 -7,11 -12,14 0,7 -4,14 -11,17 -2,1 -5,2 -7,2 -2,7 -7,13 -16,16 -3,2 -7,2 -10,1 -6,-1 -10,-3 -13,-6 -1,1 -3,1 -4,2 0,1 0,1 0,2 0,3 0,7 0,10 0,8 -6,15 -13,18 -1,4 -3,8 -6,11 -6,5 -12,6 -19,5 -3,1 -7,1 -10,1 5,5 7,12 5,20 -2,8 -10,14 -19,14 0,0 0,0 0,0 -2,3 -4,6 -7,8 -5,3 -11,4 -17,2 -8,-3 -17,-7 -24,-13 0,0 -1,-1 -2,-2 -3,11 -13,17 -24,19 -6,1 -11,0 -15,-3 -5,-3 -7,-7 -9,-12 0,-4 -1,-7 -1,-10 -2,-7 0,-13 4,-17 5,-5 11,-7 17,-7 4,1 8,1 11,2 6,0 10,3 14,7 1,-3 3,-5 5,-7 3,-3 7,-12 10,-20 -2,-2 -4,-4 -6,-7zm29 -51c0,0 0,0 -1,0 0,0 0,0 0,1 0,-1 1,-1 1,-1zm-6 9c0,1 -1,2 -2,2 0,1 0,1 0,1 1,0 1,0 2,-1 0,0 0,-1 0,-2zm553 -100c-4,-12 -6,-23 -1,-36 0,0 0,0 0,-1 -2,3 -4,6 -7,8 -1,0 -2,1 -3,1 4,10 5,21 1,31 3,-2 7,-3 10,-3zm-217 -16c2,1 5,2 7,3l-7 -3zm-423 15c0,4 -1,7 -3,11 -3,4 -7,7 -11,8 0,1 1,2 2,3 1,4 2,7 3,10 0,-2 0,-5 1,-7 1,-7 4,-11 8,-14 0,-5 1,-9 4,-13 0,0 0,-1 -1,-1 0,1 -2,2 -3,3zm819 -142c2,-3 3,-6 6,-8 -3,1 -5,1 -8,1 0,1 -1,2 -1,3 1,1 2,3 3,4zm-2425 -187c0,-1 0,-1 0,-2 0,0 0,0 0,-1 0,0 -1,0 -1,0 0,0 0,-1 -1,-1 1,2 2,3 2,4 0,0 0,0 0,0zm-560 -96c0,0 0,0 0,0 0,0 0,0 0,0 0,0 0,0 0,0 0,0 0,0 0,0zm36 -80c2,1 3,3 4,4 6,1 11,2 16,4 -5,-5 -9,-9 -14,-14 -1,-1 -1,-2 -2,-3 -2,3 -4,5 -6,8 1,0 1,1 2,1zm1911 386c-12,0 -25,0 -37,0 -5,0 -11,0 -17,-1 9,5 20,12 28,10 2,0 3,0 3,0 1,0 3,-1 4,-2 7,-3 12,-6 19,-7zm-1346 -761c47,-1 95,-2 142,-2 0,-1 1,-2 1,-2 4,-5 9,-8 15,-9 73,-5 147,-11 220,-13 1,-2 1,-4 2,-6 7,-24 17,-47 24,-71 4,-17 12,-35 16,-53 -40,4 -80,10 -120,14 -64,10 -129,18 -192,36 0,1 -1,1 -1,1 -23,4 -45,12 -68,18 -3,1 -7,1 -11,0 -14,29 -28,58 -41,88 5,0 9,-1 13,-1zm1780 924c0,0 0,0 -1,-1 0,0 0,0 0,1 0,0 1,0 1,0zm-219 5c0,-1 0,-1 0,-2 0,-1 0,-3 1,-4 -1,0 -1,-1 -1,-1 -2,-2 -3,-4 -4,-7 1,4 1,8 1,12 1,0 2,1 3,2zm506 -123c0,-1 0,-2 0,-3 0,-2 0,-5 0,-7 0,-2 0,-4 1,-6 -3,0 -5,0 -8,0 0,4 -1,7 -4,10 -1,2 -2,3 -4,4 3,1 5,2 7,4 0,0 0,1 1,1 1,-1 2,-2 4,-2 1,-1 2,-1 3,-1zm-113 -13c0,-1 0,-2 0,-3 -5,0 -10,0 -14,0 0,0 0,0 0,0 2,0 4,1 6,1 3,0 6,1 8,2zm-2479 -537c0,0 1,0 1,0 2,0 4,0 6,0 -1,-2 -2,-4 -3,-6 0,-1 0,-2 0,-3 -1,3 -2,6 -4,9 0,0 0,0 0,0zm-21 76c2,0 5,1 7,2 6,3 12,7 17,12 2,1 9,8 12,8 1,0 1,0 2,0 65,0 131,-5 196,-4 42,-2 83,-2 125,-4 7,0 14,-2 20,-5 18,-8 36,-16 52,-26 4,-3 8,-7 12,-11 -8,-1 -15,-7 -17,-14 -16,0 -31,3 -47,3 1,10 1,20 -1,30 -1,10 -9,17 -19,17 -9,1 -18,-6 -20,-16 -1,-4 -1,-8 -2,-13 -4,0 -9,1 -13,1 -1,1 -2,1 -3,1 -99,0 -199,5 -298,6 -11,0 -20,-9 -20,-19 0,-1 0,-1 0,-1 -2,4 -2,8 -2,13 -1,5 -3,9 -6,13 -1,1 -1,1 -2,2 0,2 1,4 2,6 2,-1 3,-1 5,-1zm490 200c0,0 0,0 0,0 0,0 0,0 0,0 0,0 0,0 0,0 0,0 0,0 0,0zm1815 319c-1,-2 -1,-5 0,-7 0,0 0,0 0,0 -4,5 -8,11 -12,16 -2,2 -4,4 -7,5 -4,2 -8,4 -12,6 -2,7 -3,15 -8,22 -1,2 -3,4 -4,5 1,3 2,5 2,8 4,-3 8,-6 12,-10 1,-1 3,-2 4,-2 0,-3 0,-5 1,-7 3,-13 11,-21 20,-31 1,-1 3,-2 4,-3 0,-1 0,-2 0,-2zm-705 -946c4,-6 10,-11 16,-14 6,-4 12,-4 18,-2 5,3 9,7 11,13 7,23 -12,39 -33,39 -5,0 -8,-2 -12,-4 -7,10 -18,14 -31,14 -6,0 -10,-2 -14,-6 -4,-4 -6,-9 -5,-15 0,-2 0,-5 0,-7 0,-5 3,-10 6,-13 13,-12 28,-17 43,-6 0,0 0,1 1,1zm256 101c-1,1 -2,2 -4,3 -4,4 -8,8 -12,12 -6,6 -14,7 -22,4 -7,-4 -12,-11 -11,-19 0,-13 2,-25 6,-38 1,-4 3,-7 6,-9 7,-5 13,-9 20,-13 6,-3 13,-3 19,0 6,3 9,8 11,14 0,1 0,3 1,4 2,7 3,13 2,20 -1,4 -2,7 -5,10 -3,3 -5,6 -8,9 -1,1 -2,2 -3,3zm-105 -109c25,-18 53,22 28,40 -26,22 -56,-22 -28,-40zm-261 11c21,-7 37,9 31,30 -2,6 -7,11 -13,13 -21,7 -37,-9 -31,-30 2,-7 6,-11 13,-13zm932 1003c11,1 21,8 21,20 1,9 -4,17 -12,21 -21,11 -41,-10 -28,-31 4,-7 11,-11 19,-10z"/>
    </g>
   </g>
   <g id="_2242135197184">
    <g id="__x0023_ffffffff">
     <path class="fil2" d="M580 581c56,-3 111,-7 166,-10 24,-2 41,17 59,28 31,21 62,42 92,65 4,3 8,7 12,11 -8,-1 -16,-3 -23,-8 -37,-27 -74,-52 -112,-78 -15,-11 -35,-6 -52,-5 -52,2 -104,4 -156,7 -9,-1 -13,9 -18,14 1,-8 3,-16 11,-21 7,-2 14,-2 21,-3z"/>
     <path class="fil2" d="M812 591c22,0 44,-1 66,-2 14,-1 27,8 38,16 23,17 46,33 69,49 5,4 8,9 11,14 -17,-2 -30,-17 -44,-26 -20,-13 -37,-28 -57,-38 -24,-5 -48,1 -72,-2 -4,-3 -8,-7 -11,-11z"/>
     <path class="fil2" d="M575 610c10,-1 19,-2 29,-2 -4,24 -8,49 -9,73 -7,1 -14,1 -22,1 1,-24 2,-48 2,-72z"/>
     <g>
      <path class="fil2" d="M1413 660c35,-4 70,0 105,-2 26,1 56,-5 79,11 22,16 29,47 22,73 -13,57 -28,112 -42,169 -9,44 -48,81 -93,83 -43,1 -86,0 -128,1 -22,0 -43,-8 -57,-24 -13,-16 -14,-38 -9,-57 15,-62 31,-124 47,-185 11,-34 41,-62 76,-69l0 0zm36 71c-16,5 -22,22 -25,37 -9,33 -17,65 -25,98 -3,15 -11,30 -6,44 8,10 21,9 32,10 15,0 31,1 45,-6 7,-4 10,-13 13,-20 10,-29 15,-60 23,-89 5,-18 10,-35 13,-53 1,-10 -4,-22 -15,-22 -18,-1 -37,-2 -55,1z"/>
     </g>
     <path class="fil2" d="M1682 659c83,0 166,-1 249,0 -5,24 -13,47 -18,71 -51,-1 -102,0 -153,-1 -5,18 -9,35 -13,53 46,1 92,0 138,1 -9,24 -14,50 -20,76 -46,0 -92,-1 -138,0 -12,45 -24,90 -35,135 -32,1 -64,0 -97,1 30,-112 58,-224 87,-336z"/>
     <path class="fil2" d="M1966 659c82,0 165,-1 247,0 -5,24 -12,47 -17,71 -50,-1 -101,1 -152,0 -5,17 -9,34 -13,51 46,2 92,1 138,2 -8,25 -13,50 -21,76 -46,0 -92,-1 -138,0 -13,45 -23,91 -37,136 -31,-1 -63,0 -94,-1 20,-80 41,-161 63,-241 7,-32 15,-63 24,-94z"/>
     <g>
      <path class="fil2" d="M2249 659c74,-1 148,-1 222,0 20,0 39,13 45,32 8,24 -1,48 -6,71 -8,29 -12,62 -33,86 -10,13 -27,19 -41,27 11,40 19,80 30,120 -33,-1 -67,0 -100,0 -11,-39 -19,-78 -31,-116 -16,0 -31,0 -47,0 -10,38 -21,76 -30,115 -32,1 -64,0 -96,0 28,-112 57,-224 87,-335l0 0zm60 137c30,1 59,1 89,0 16,-2 20,-20 23,-34 2,-8 6,-22 -6,-25 -30,-1 -61,1 -91,0 -5,20 -11,39 -15,59z"/>
     </g>
     <g>
      <path class="fil2" d="M2638 661c13,-3 27,-2 40,-3 37,0 74,0 111,0 24,1 48,16 56,40 11,28 -3,57 -9,85 -12,47 -21,95 -36,142 -15,37 -50,70 -91,69 -43,0 -85,0 -128,0 -17,0 -35,-3 -48,-15 -17,-16 -23,-42 -16,-65 16,-62 31,-125 48,-187 12,-31 39,-60 73,-66l0 0zm40 70c-12,3 -21,15 -23,27 -8,33 -18,66 -25,98 -4,17 -11,34 -10,51 3,11 17,13 27,12 18,0 38,4 54,-8 8,-9 11,-22 14,-33 9,-34 16,-68 26,-101 2,-12 7,-24 5,-36 -3,-10 -15,-11 -23,-12 -15,0 -30,-1 -45,2z"/>
     </g>
     <g>
      <path class="fil2" d="M2810 995c52,-112 104,-224 155,-337 52,1 103,-1 154,1 -3,112 -6,224 -9,336 -33,-1 -66,-1 -99,-1 1,-20 0,-40 2,-60 -26,0 -51,-1 -77,-1 -8,20 -15,40 -24,60 -34,3 -68,0 -102,2l0 0zm195 -214c-9,24 -22,46 -30,71 14,0 28,0 41,0 1,-36 6,-72 7,-108 -7,11 -12,24 -18,37z"/>
     </g>
     <g>
      <path class="fil2" d="M3225 659c65,-1 129,0 194,-1 18,0 38,4 52,17 22,18 26,51 19,78 -14,52 -24,106 -40,158 -10,34 -36,63 -69,77 -16,7 -34,6 -52,6 -64,0 -127,0 -191,1 29,-112 59,-224 87,-336l0 0zm31 256c23,0 46,1 69,0 15,-1 30,-10 33,-25 7,-33 18,-64 25,-97 3,-16 10,-32 9,-49 -2,-8 -9,-14 -18,-14 -24,-1 -47,-1 -70,-1 -15,63 -32,124 -48,186z"/>
     </g>
     <path class="fil2" d="M923 681c19,0 38,-6 57,-5 0,16 -4,31 -4,46 -1,0 -2,0 -2,0 -1,-4 -1,-9 -1,-14 -25,-2 -50,5 -75,2 -4,-6 -1,-14 2,-20 4,-8 14,-8 23,-9z"/>
     <path class="fil2" d="M504 710c2,-12 16,-8 24,-10 -11,14 -17,31 -18,49 -5,-12 -7,-26 -6,-39z"/>
     <path class="fil2" d="M552 714c77,-2 154,-5 231,-6 34,0 69,-2 103,-1 2,17 4,35 2,52 -2,-10 -4,-20 -5,-29 -11,0 -22,-1 -33,1 -100,1 -199,5 -299,6 0,-8 0,-16 1,-23z"/>
     <path class="fil2" d="M972 769c11,-9 19,-21 30,-31 -9,12 -14,27 -24,38 -14,10 -32,16 -48,23 -14,4 -27,9 -41,10 -31,1 -61,3 -91,3 -50,6 -101,3 -152,4 -30,4 -61,2 -91,3 -9,-9 -18,-19 -27,-29 13,6 22,22 38,21 66,1 132,-4 198,-3 41,-3 83,-3 124,-4 10,0 19,-3 28,-7 19,-9 38,-17 56,-28z"/>
     <path class="fil2" d="M882 957c34,-3 69,-11 104,-11 1,3 2,9 2,11 -4,2 -9,3 -14,3 -56,5 -113,13 -169,20 -44,7 -87,10 -131,16 0,-1 1,-5 1,-7 41,-5 82,-11 123,-16 27,-11 56,-11 84,-16z"/>
     <path class="fil2" d="M861 1005c49,-7 100,-11 149,-17 6,8 11,17 14,26 4,14 15,24 20,37 -48,-1 -95,10 -142,18 -12,-6 -22,-16 -34,-21 -22,6 -41,23 -65,22 11,-19 17,-41 25,-61 10,-5 22,-2 33,-4z"/>
     <path class="fil2" d="M749 1242c77,-7 153,-9 229,-15 -1,1 -2,4 -2,5 -76,7 -151,8 -227,10z"/>
     <path class="fil2" d="M2868 1230l3 -1c8,-1 15,-2 22,-3 0,2 0,7 -1,9 -1,6 -1,13 -2,20 -1,0 -4,0 -5,-1 0,-1 0,-3 0,-4 -2,-1 -5,-1 -7,-1 -3,-6 -9,-12 -10,-19z"/>
     <path class="fil2" d="M2862 1265c1,-5 6,-8 10,-11 0,5 -3,9 -7,12 2,2 5,6 6,8 -5,7 -10,13 -14,20 -1,-2 -3,-7 -4,-9 3,-7 4,-15 9,-20z"/>
     <path class="fil2" d="M2688 1355c-2,-5 7,-8 10,-4 1,4 -7,6 -10,4z"/>
    </g>
    <g id="__x0023_031402ff">
     <g>
      <path class="fil3" d="M1151 290c119,-30 241,-50 363,-61 33,-2 65,5 98,9 108,16 216,32 323,54 16,2 28,15 30,30 7,32 11,65 17,97 5,37 13,75 13,113 7,4 15,5 23,3 8,-5 -1,-9 -4,-14 3,0 7,1 9,1 -1,-8 -4,-15 -9,-20 -7,-8 -7,-18 -11,-27 5,-3 8,-7 6,-13 5,-1 9,-2 14,-3 0,7 -1,14 -1,20 7,1 8,8 10,14 -3,2 -4,5 -3,9 3,11 12,20 13,33 9,-1 17,3 25,6 -2,-6 -3,-12 -5,-17 3,1 9,4 12,5 0,1 2,2 2,3 6,-12 5,-27 11,-39 2,-1 7,-2 9,-3 2,-6 3,-12 3,-18 4,-2 8,-5 12,-7 0,9 -1,18 2,27 8,7 18,11 28,14 6,0 12,9 17,1 3,2 6,4 9,6 1,2 3,6 4,8 6,-1 12,-1 18,0 0,-3 -1,-9 -1,-12 4,3 7,7 11,7 3,-4 6,-9 9,-13 8,-9 20,-13 31,-9 4,4 7,8 11,12 0,12 -1,24 0,35 5,2 9,4 13,6 6,-8 16,-19 26,-15 -4,-3 -3,-8 -4,-12 -7,-3 -13,-7 -13,-15 9,-2 12,7 18,11 2,-2 6,-5 7,-7 9,2 16,6 23,12 3,0 6,0 10,0 0,-2 0,-7 0,-9 2,1 6,2 8,3 0,11 -12,16 -15,25 5,5 10,8 15,12 6,1 12,1 16,-4 9,10 -4,16 -9,24 -2,7 4,13 6,19 8,-5 16,-12 26,-15 11,3 15,15 16,26 4,1 8,2 13,2 0,-4 1,-9 2,-14 3,0 8,0 11,0 3,1 5,3 7,5 0,-4 -1,-8 -2,-12 -8,0 -16,1 -25,2 -1,-5 2,-16 -5,-16 -1,1 -3,4 -4,6 -8,-1 -5,-9 -3,-14 4,-9 6,-20 16,-24 0,7 1,13 1,19l-6 -1c1,2 1,6 2,7 3,1 7,2 10,2 0,-2 1,-6 1,-9 11,-3 12,13 15,20 4,2 7,4 12,3 -1,-6 -2,-12 -4,-18l-1 -2c4,-5 9,-9 13,-13 6,4 11,10 11,18 -11,7 -11,21 -14,32 3,0 11,0 14,0 0,-4 0,-10 -1,-14 5,0 9,1 14,1 1,3 2,7 4,10 -2,1 -4,4 -6,5 0,3 1,7 1,9 19,-13 12,-41 21,-60 3,-3 5,-7 6,-11 11,-47 24,-93 36,-140 54,-1 109,-1 163,-1 23,-2 47,2 65,17 4,-7 7,-19 19,-17 257,0 515,0 773,0 -11,40 -19,80 -32,120 -19,-1 -38,-1 -56,-1 -8,31 -16,62 -25,92 35,4 68,22 89,51 21,29 25,68 18,103 -12,56 -29,110 -42,166 -7,28 -21,53 -40,75 9,10 -2,25 10,33 -1,2 -2,7 -2,9 7,8 15,15 18,25 1,15 -24,16 -25,29l-5 -1c3,11 13,21 9,33 -12,0 -24,-3 -34,4 -8,2 -4,15 -11,19 -6,4 -15,3 -22,4 1,2 1,5 2,6 4,0 8,1 12,1 1,7 8,6 13,7 9,20 33,30 41,50 -3,9 1,17 2,25 -2,0 -7,1 -10,1 3,-6 4,-12 4,-18 -5,2 -10,4 -15,6 0,2 -2,6 -2,7 -9,1 -17,4 -25,6 0,2 1,8 2,11 -9,-10 -19,-14 -32,-12 -7,-14 -24,-20 -26,-37 -5,4 -8,9 -12,14 -10,1 -19,-2 -27,-6 4,10 13,19 24,22 -2,0 -7,0 -10,1 -4,1 -9,2 -14,3 1,2 2,5 3,6 0,1 2,1 3,2 7,3 14,7 21,12 -1,0 -4,-1 -5,-1 3,9 -6,13 -13,12 -6,-8 -12,-16 -17,-23 -16,2 -23,-16 -29,-28 -4,3 -9,7 -14,9 -4,-1 -8,-4 -12,-6 0,-2 -1,-6 -1,-8 -3,1 -7,5 -10,6 -3,-2 -6,-4 -9,-6 -3,1 -11,4 -14,5 5,5 12,7 18,10 1,5 1,11 2,16 -6,-2 -12,-5 -18,-8 0,3 1,9 1,12 -2,0 -7,0 -10,-1 1,-6 1,-12 9,-11 2,-10 -4,-17 -10,-24 -2,-3 -5,-8 -9,-7 -12,-1 -23,2 -35,0 -5,-1 -10,1 -13,5 -16,-9 -35,-4 -53,-6 -10,-3 -15,7 -23,12 -10,4 -25,2 -26,-11 -24,0 -48,0 -72,-1 1,2 4,5 6,7 -2,4 -3,8 -5,12 -4,-4 -8,-8 -12,-11 0,-3 -1,-7 -1,-9 -9,1 -18,4 -26,8 -11,3 -22,1 -32,3 -1,6 -1,12 -2,19 -1,-2 -3,-6 -4,-8 -6,1 -10,6 -13,11 5,1 13,-1 15,5 3,-1 7,-3 10,-4 0,2 1,7 1,9l-2 -6c-5,6 -12,12 -21,12 1,2 2,5 3,6 -5,1 -10,3 -14,4 -1,4 -3,8 -4,12 -2,5 -4,9 -6,14 -4,-4 -6,-8 -9,-11 -6,6 -15,12 -15,22l6 2c-1,7 -4,13 -9,18 5,4 9,9 12,14 7,-7 14,-14 21,-18 -1,2 -3,6 -4,8 1,1 3,4 3,5 -1,1 -3,1 -4,2l-2 -1c-6,1 -7,4 -3,11l2 2c2,0 6,0 9,0 -5,2 -10,2 -15,2 -1,2 -3,6 -4,8 0,-3 1,-6 1,-9 -3,-5 -9,-5 -14,-7 -2,-7 -5,-17 -15,-13l0 -3c-2,0 -7,1 -10,1 4,-4 8,-5 14,-3 1,-6 3,-11 4,-16 -3,1 -6,2 -10,2 -6,6 -13,13 -15,22 6,3 10,8 17,9 -4,5 -8,11 -11,16 -3,0 -6,0 -9,0 -3,-3 -6,-4 -9,-5 -14,11 -25,24 -35,38 -2,7 2,15 -2,21 -5,9 -7,18 -6,28 -3,-3 -6,-5 -10,-8 -5,8 -10,15 -15,23 1,2 3,7 4,9 -2,4 -4,8 -6,11 -8,4 -11,12 -12,21 4,2 9,5 13,8 -2,0 -6,0 -8,0 -2,-2 -5,-5 -7,-7 -2,5 -2,12 -3,18 -6,-2 -12,-5 -17,-9 11,-9 12,-25 19,-37 10,-16 16,-33 22,-50 3,-9 7,-18 11,-27 -2,-2 -5,-5 -7,-7 3,-8 6,-16 9,-24 2,0 6,0 7,-1 0,-2 0,-8 0,-10 -1,2 -2,6 -3,8 -10,-2 -8,-20 -19,-16 1,-7 2,-13 3,-19 4,-5 9,-8 13,-11 -1,-2 -2,-5 -3,-7 5,1 10,1 15,1 -2,6 -3,12 -2,18 5,-8 6,-18 6,-27 8,-2 15,-6 23,-9 5,-6 9,-13 14,-19 5,-3 10,-5 14,-8 -6,1 -12,-2 -14,-8 -8,-6 3,-20 -7,-26 -8,0 -16,3 -25,4 3,6 5,13 7,19 4,10 6,21 2,31 1,8 -9,9 -14,13 -2,-4 -4,-7 -6,-10 -8,8 -13,17 -19,25 -6,-1 -12,-2 -18,-2 4,14 8,28 5,43 -10,10 -27,9 -35,21 0,-3 -1,-9 -2,-12l-5 -1c-1,1 -3,3 -4,3 -5,10 -4,23 -14,30 -3,-2 -7,-4 -10,-6 -2,5 -5,10 -7,16 -1,-1 -4,-3 -5,-4 -8,4 -13,11 -17,19 3,3 7,5 12,5 0,2 1,6 2,8 -4,4 -7,7 -10,11 -12,-6 -10,-20 -9,-31 2,-8 9,-13 13,-20 4,-6 0,-13 1,-20 6,0 8,-6 12,-10 -8,2 -13,-4 -17,-9 2,-8 13,-2 16,-10 0,-3 -1,-7 -2,-10l-5 1c1,-2 5,-6 6,-8 -5,-13 -9,-26 -16,-37 -11,-4 -23,-11 -34,-3 0,-6 0,-12 1,-18 -15,-3 -31,-2 -46,-3 -14,-1 -28,-3 -42,-1 -13,5 -23,19 -38,16 -16,0 -24,-16 -38,-19 -15,2 -27,9 -41,14 -16,-19 -43,-17 -65,-13 -7,2 -15,-1 -17,-8l2 -2c47,7 95,5 142,1 23,-2 45,-9 66,-17 10,-4 23,-5 31,-13 -14,-2 -30,-1 -42,-10 0,3 1,8 2,10 -34,6 -68,6 -102,2 -12,-2 -20,10 -31,9 -17,2 -31,-7 -45,-15 -2,4 -3,9 -2,14 -46,0 -91,-11 -137,-10 -9,0 -18,2 -28,4 2,3 12,11 4,11 -20,0 -40,3 -60,2 4,-7 9,-13 14,-19 7,-2 14,-3 20,-5 -16,-4 -34,-1 -51,0 -70,5 -141,5 -211,13 -10,1 -21,1 -32,1 14,5 29,3 43,1 49,4 99,0 149,-2 11,-1 23,-2 34,0l4 3c-15,2 -27,13 -42,12 -26,1 -53,8 -79,0 -11,-3 -22,1 -32,6 -13,2 -24,-10 -38,-7 -25,4 -50,3 -76,4 -13,0 -25,-4 -38,-4 -17,0 -35,1 -52,4 -17,3 -34,-5 -52,-4 -34,-1 -62,25 -95,32 -20,2 -40,4 -60,6 -6,5 -11,9 -18,9 -1,-2 -3,-6 -4,-8 -35,3 -69,-5 -103,-4 -19,-1 -31,15 -48,19 -16,0 -27,-12 -38,-21 -16,-1 -31,8 -45,15 -16,-19 -44,-19 -67,-12 -9,3 -14,-7 -19,-13 29,-1 57,5 85,5 44,-5 88,-6 130,-20 12,-5 25,-7 34,-15 -11,0 -21,1 -32,-2 -8,-3 -15,-7 -22,-11 0,1 0,4 0,5 4,4 8,7 11,11 -37,2 -74,8 -110,1 -11,3 -20,11 -31,10 -16,-1 -28,-11 -42,-16 0,3 1,9 1,13 -48,1 -95,-11 -143,-10 -7,0 -13,4 -20,6 3,3 5,6 8,9 -21,2 -42,6 -63,3 -1,-2 -2,-7 -3,-9 -20,-3 -40,2 -59,11 -22,3 -45,4 -67,6 -14,1 -26,-8 -40,-5 -7,2 -12,6 -18,10 -13,-5 -25,-13 -39,-11 -29,3 -57,4 -86,3 -25,-3 -51,0 -76,-2 1,-2 2,-5 2,-7 23,-3 46,1 70,0 -26,0 -51,-4 -76,-4 -33,-1 -66,-1 -99,-4 -6,0 -4,-7 -5,-11 8,-1 16,-2 24,-2 76,3 153,4 229,4 30,1 59,-4 89,-5 11,0 22,0 32,-4 1,-3 2,-6 3,-9 -14,-2 -25,8 -38,7 -13,2 -28,-4 -41,3 -37,1 -74,-4 -111,-6 -1,1 -3,3 -3,4 -16,1 -31,-4 -46,-7 -18,-2 -37,-1 -55,0 -10,6 -21,-4 -31,-2 -105,-1 -209,2 -313,-1 13,-11 29,-21 46,-25 16,-11 29,-26 44,-38 7,-6 16,-3 23,-3 14,-15 30,-27 44,-41 -6,-4 -11,-9 -13,-16 13,-1 25,4 37,5 15,1 29,0 43,-2 -13,-8 -28,-11 -41,-20 -7,-7 -13,-17 -19,-25 8,-1 15,5 21,8 19,9 31,26 51,32 -13,-17 -30,-29 -48,-39 -12,-7 -23,-16 -28,-28 -3,-6 1,-13 3,-19 1,2 2,4 2,6 0,2 -1,6 -2,8 7,8 12,24 24,20 1,-5 0,-11 -1,-16 -6,-10 -10,-21 -11,-32 7,14 19,25 31,36 4,4 10,9 15,13 1,-11 3,-23 -3,-32 -5,-8 -2,-18 -6,-27 -3,-11 -10,-25 -1,-35 -6,-15 2,-29 -1,-44 4,-9 7,-18 8,-28 9,-12 7,-29 15,-42 7,-12 17,-23 24,-35 2,-3 6,-5 6,-9 -9,-25 -14,-51 -20,-77 5,-8 12,-14 19,-20 10,-1 20,-1 29,-1 1,-25 3,-51 4,-76 1,-13 6,-30 21,-32 18,-2 37,-3 55,-4 8,-18 15,-36 27,-52 17,-22 46,-28 71,-36 108,-25 219,-33 329,-42 14,-36 31,-70 48,-105 5,-9 10,-19 18,-26 13,-11 29,-14 44,-19l0 0zm191 -22c-57,8 -112,22 -168,34 -17,4 -35,9 -51,17 -7,2 -11,7 -14,13 23,-6 45,-14 69,-19 63,-18 129,-26 194,-36 49,-5 97,-14 145,-16 0,28 -12,53 -19,79 -7,25 -17,48 -24,73 -3,7 -6,18 -15,18 -75,3 -150,9 -225,14 33,2 65,-1 97,2 23,2 47,1 70,5 13,2 26,9 33,20 7,11 7,24 9,36 12,0 24,0 36,0 0,-26 9,-50 16,-75 16,-62 35,-124 54,-186 -22,-5 -44,0 -66,1 -47,6 -94,13 -141,20l0 0zm216 -21c-8,21 -12,43 -18,65 -14,49 -30,98 -43,148 -14,47 -5,96 -4,144 224,-1 448,0 672,0 -1,-10 -2,-20 -5,-30 -42,-6 -84,-8 -126,-13 -77,-9 -154,-14 -232,-21 -61,-5 -123,-8 -184,-18 87,-1 174,8 260,9 33,1 66,2 99,3 1,-19 -4,-37 -3,-56 -1,-20 -5,-39 -10,-58 -1,-16 -4,-32 -6,-48 -4,-17 -8,-33 -9,-50 -1,-5 -6,-9 -11,-11 -14,-6 -31,-8 -46,-11 -91,-16 -182,-31 -273,-44 -20,-3 -40,-8 -61,-9l0 0zm1009 190c-11,33 -19,66 -27,100 -7,21 -11,43 -16,64 19,4 38,1 58,3 7,-18 11,-38 17,-57 27,-1 55,0 83,-1 12,0 23,-6 32,-14 17,-16 17,-41 23,-61 6,-16 -8,-32 -24,-33 -49,-2 -98,0 -146,-1l0 0zm227 1c-12,17 -20,37 -30,56 -19,36 -39,72 -58,108 21,2 42,1 63,2 5,-10 9,-20 13,-30 16,0 32,1 49,1 -1,10 -1,19 -2,29 21,-1 42,0 63,-1 -2,-55 -2,-110 -4,-165 -31,-2 -63,-1 -94,0l0 0zm156 0c-14,55 -29,111 -43,166 20,0 41,0 61,-1 6,-25 13,-50 20,-75 13,24 22,50 33,75 21,0 42,0 63,0 -10,-30 -23,-58 -35,-88 22,-27 48,-51 70,-78 -20,1 -40,0 -60,1 -8,6 -15,14 -22,22 -13,17 -29,30 -44,46 7,-23 12,-46 17,-69 -20,0 -40,0 -60,1l0 0zm196 -1c-13,56 -30,111 -42,166 51,0 102,1 153,1 4,-13 9,-26 12,-40 -32,-1 -64,1 -95,0 3,-10 6,-19 8,-29 28,0 56,0 85,-1 3,-13 7,-26 10,-38 -28,-1 -57,0 -86,1 2,-9 4,-17 6,-26 31,0 63,1 94,1 3,-11 5,-23 8,-34 -51,-1 -102,-2 -153,-1l0 0zm172 0c-4,11 -8,23 -11,35 20,0 40,0 60,0 -10,44 -21,88 -33,131 21,0 41,1 61,-1 7,-22 12,-44 17,-67 4,-21 12,-41 16,-62 20,-1 39,0 58,0 4,-12 7,-24 9,-35 -59,-1 -118,-1 -177,-1l0 0zm-2333 25c-30,0 -60,3 -90,8 -69,8 -137,19 -204,34 6,0 11,0 17,-1 58,-12 116,-18 175,-23 26,0 53,-1 80,0 13,1 23,12 32,20 74,1 148,2 222,3 72,0 145,6 217,5 -2,-12 -4,-26 -11,-36 -10,-9 -25,-11 -38,-12 -26,-2 -52,-4 -78,-4 -107,-1 -215,0 -322,6l0 0zm-212 41c-36,6 -72,10 -107,23 -18,6 -28,25 -30,43 8,-9 13,-20 21,-28 5,-6 13,-7 20,-9 2,1 6,3 7,4 2,6 3,12 5,18 5,-9 9,-24 22,-19 7,7 4,19 5,28 8,-7 8,-18 12,-27 4,-3 10,-6 16,-4 5,10 0,21 6,30 4,-8 5,-18 8,-28 3,-7 20,-8 18,3 2,11 -6,26 4,35 3,-14 6,-29 10,-43 4,-1 8,-1 12,-2 6,-3 6,6 6,10 -2,15 -6,30 -7,45 2,0 6,-1 7,-2 3,-11 4,-23 6,-35 2,-11 11,-23 24,-21 3,19 -6,36 -8,54 4,1 8,1 11,0 1,-13 4,-25 5,-38 3,-6 5,-14 11,-17 5,-4 14,1 13,7 0,16 -4,32 -9,48 3,0 8,0 10,0 2,-17 2,-34 9,-49 5,-9 15,-9 23,-9 2,20 -6,40 -6,61 1,1 5,3 6,5 1,-29 5,-60 26,-81 9,-10 23,-15 35,-9 11,7 17,21 17,34 -1,19 -5,40 -15,57 -7,11 -21,13 -33,16 12,12 25,21 39,29 5,-35 17,-70 16,-106 1,-12 -5,-24 -15,-32 -9,-8 -22,-4 -33,-4 -56,1 -112,3 -167,13l0 0zm225 6c6,25 -5,50 -7,74 -3,18 -8,36 -9,54 4,8 13,13 20,17 16,-28 27,-60 43,-89 10,-15 32,-10 48,-10 87,1 175,4 262,5 9,0 17,0 25,4 10,13 13,30 24,41 26,-1 52,-1 77,-1 0,-28 3,-57 -2,-85 -104,-1 -207,-5 -310,-7 -57,1 -114,-2 -171,-3l0 0zm-418 72c-7,1 -14,1 -21,3 -8,5 -10,13 -11,21 5,-5 9,-15 18,-14 52,-3 104,-5 156,-7 17,-1 37,-6 52,5 38,26 75,51 112,78 7,5 15,7 23,8 -4,-4 -8,-8 -12,-11 -30,-23 -61,-44 -92,-65 -18,-11 -35,-30 -59,-28 -55,3 -110,7 -166,10l0 0zm232 10c3,4 7,8 11,11 24,3 48,-3 72,2 20,10 37,25 57,38 14,9 27,24 44,26 -3,-5 -6,-10 -11,-14 -23,-16 -46,-32 -69,-49 -11,-8 -24,-17 -38,-16 -22,1 -44,2 -66,2l0 0zm-77 10c0,7 -1,17 9,19 0,-7 0,-13 1,-20 -4,0 -7,1 -10,1l0 0zm-109 1c2,12 7,24 16,32 -4,-11 -7,-23 -16,-32l0 0zm78 2c0,5 -1,10 -1,15 4,0 7,0 10,0 1,-5 1,-11 2,-17 -4,1 -8,1 -11,2l0 0zm-28 8c-1,4 -1,8 -2,12 8,-2 9,-11 10,-18 -3,2 -6,4 -8,6l0 0zm92 -5c-4,3 -4,11 2,12 6,-1 6,-16 -2,-12l0 0zm-193 3c0,24 -1,48 -2,72 8,0 15,0 22,-1 1,-24 5,-49 9,-73 -10,0 -19,1 -29,2l0 0zm838 50c-35,7 -65,35 -76,69 -16,61 -32,123 -47,185 -5,19 -4,41 9,57 14,16 35,24 57,24 42,-1 85,0 128,-1 45,-2 84,-39 93,-83 14,-57 29,-112 42,-169 7,-26 0,-57 -22,-73 -23,-16 -53,-10 -79,-11 -35,2 -70,-2 -105,2l0 0zm269 -1c-29,112 -57,224 -87,336 33,-1 65,0 97,-1 11,-45 23,-90 35,-135 46,-1 92,0 138,0 6,-26 11,-52 20,-76 -46,-1 -92,0 -138,-1 4,-18 8,-35 13,-53 51,1 102,0 153,1 5,-24 13,-47 18,-71 -83,-1 -166,0 -249,0l0 0zm284 0c-9,31 -17,62 -24,94 -22,80 -43,161 -63,241 31,1 63,0 94,1 14,-45 24,-91 37,-136 46,-1 92,0 138,0 8,-26 13,-51 21,-76 -46,-1 -92,0 -138,-2 4,-17 8,-34 13,-51 51,1 102,-1 152,0 5,-24 12,-47 17,-71 -82,-1 -165,0 -247,0l0 0zm283 0c-30,111 -59,223 -87,335 32,0 64,1 96,0 9,-39 20,-77 30,-115 16,0 31,0 47,0 12,38 20,77 31,116 33,0 67,-1 100,0 -11,-40 -19,-80 -30,-120 14,-8 31,-14 41,-27 21,-24 25,-57 33,-86 5,-23 14,-47 6,-71 -6,-19 -25,-32 -45,-32 -74,-1 -148,-1 -222,0l0 0zm389 2c-34,6 -61,35 -73,66 -17,62 -32,125 -48,187 -7,23 -1,49 16,65 13,12 31,15 48,15 43,0 85,0 128,0 41,1 76,-32 91,-69 15,-47 24,-95 36,-142 6,-28 20,-57 9,-85 -8,-24 -32,-39 -56,-40 -37,0 -74,0 -111,0 -13,1 -27,0 -40,3l0 0zm172 334c34,-2 68,1 102,-2 9,-20 16,-40 24,-60 26,0 51,1 77,1 -2,20 -1,40 -2,60 33,0 66,0 99,1 3,-112 6,-224 9,-336 -51,-2 -102,0 -154,-1 -51,113 -103,225 -155,337l0 0zm415 -336c-28,112 -58,224 -87,336 64,-1 127,-1 191,-1 18,0 36,1 52,-6 33,-14 59,-43 69,-77 16,-52 26,-106 40,-158 7,-27 3,-60 -19,-78 -14,-13 -34,-17 -52,-17 -65,1 -129,0 -194,1l0 0zm-2302 22c-9,1 -19,1 -23,9 -3,6 -6,14 -2,20 25,3 50,-4 75,-2 0,5 0,10 1,14 0,0 1,0 2,0 0,-15 4,-30 4,-46 -19,-1 -38,5 -57,5l0 0zm-419 29c-1,13 1,27 6,39 1,-18 7,-35 18,-49 -8,2 -22,-2 -24,10l0 0zm290 -6c-4,1 -8,2 -11,4 -77,1 -154,4 -231,6 -1,7 -1,15 -1,23 100,-1 199,-5 299,-6 11,-2 22,-1 33,-1 1,9 3,19 5,29 2,-17 0,-35 -2,-52 -4,-2 -7,-6 -12,-6 -26,1 -53,1 -80,3l0 0zm178 65c-18,11 -37,19 -56,28 -9,4 -18,7 -28,7 -41,1 -83,1 -124,4 -66,-1 -132,4 -198,3 -16,1 -25,-15 -38,-21 9,10 18,20 27,29 12,6 26,3 39,3 22,-3 44,-1 66,-2 56,-2 113,-3 170,-3 33,-3 72,7 100,-18 16,-7 34,-13 48,-23 10,-11 15,-26 24,-38 -11,10 -19,22 -30,31l0 0zm53 35c-5,-3 -9,-8 -14,-10 -6,5 -3,14 -3,20 3,0 8,1 10,2 1,2 1,8 1,11 -6,-2 -12,-4 -18,-5 0,3 0,7 0,11 2,2 4,5 6,7 3,0 9,-1 12,-1 -1,7 -1,14 -1,20 11,-5 15,-18 21,-28 -4,-3 -7,-7 -8,-12 6,-3 13,0 20,2 -2,9 -4,18 -7,28 11,-6 25,-15 23,-30 -2,0 -6,-1 -8,-2 3,-6 5,-13 5,-20 -10,-1 -13,11 -22,13 0,-3 0,-8 0,-11 -5,-5 -7,-10 -10,-15 -6,5 -8,12 -7,20l0 0zm48 3c0,5 0,10 0,16 5,-1 14,2 15,-6 -3,-6 -9,-9 -15,-10l0 0zm-582 22c1,3 1,7 1,10 3,0 7,1 10,2 0,3 0,9 0,11 5,-3 9,-10 15,-11 1,2 2,4 3,6 3,0 9,0 11,-1 -3,10 -9,17 -15,25 0,2 0,7 0,9 10,-2 12,-17 22,-17 6,3 4,10 5,16 2,8 12,9 19,7 0,-2 -1,-6 -1,-8 -7,-7 -14,-14 -22,-20 -1,-2 -2,-6 -3,-9 -9,-9 -24,-16 -37,-9 0,-3 0,-8 0,-11 -2,0 -6,0 -8,0l0 0zm581 6c-3,6 1,12 2,18 7,2 14,4 21,5 3,-13 -11,-22 -23,-23l0 0zm-72 13c1,8 -2,19 5,25 3,4 10,1 10,-4 1,-10 -7,-16 -15,-21l0 0zm-518 6c-1,7 7,10 10,15 0,-6 1,-11 1,-17 -4,1 -8,2 -11,2l0 0zm10 27c-3,3 3,6 5,3 8,-8 17,-17 16,-29 -10,5 -17,15 -21,26l0 0zm550 -2c0,1 0,5 0,7 2,0 7,2 9,2 5,-10 11,-20 13,-32 -2,-1 -8,-2 -11,-3 -2,9 -3,19 -11,26l0 0zm-25 14c4,-1 9,0 11,-5 5,-9 8,-19 8,-29 -13,4 -19,21 -19,34l0 0zm53 -23c-1,8 3,15 7,22 4,0 7,0 11,0 2,-11 -7,-22 -18,-22l0 0zm-558 45c11,-7 25,-21 19,-36 -13,7 -18,22 -19,36l0 0zm581 -33c1,3 5,7 6,9 9,5 11,-7 8,-13 -5,-1 -10,0 -14,4l0 0zm-94 1c0,10 8,26 20,22 -3,-10 -10,-19 -20,-22l0 0zm-512 33c2,0 7,0 9,0 6,-9 12,-19 10,-30 -8,8 -14,19 -19,30l0 0zm567 -24c-3,8 -14,21 -3,28 11,-7 17,-19 16,-32 -4,0 -12,-3 -13,4l0 0zm-34 27c-5,-3 -9,-5 -14,-8 1,7 4,13 8,19 2,0 6,0 7,0 1,-2 1,-7 1,-9 4,0 9,1 13,2 0,8 -4,15 -5,23 12,-2 20,-24 5,-28 2,-9 8,-19 2,-28 -11,6 -12,19 -17,29l0 0zm-484 -22c0,7 1,13 1,19 3,0 7,0 11,0 -1,-6 -1,-11 -1,-17 -4,0 -7,-1 -11,-2l0 0zm20 8c1,7 2,13 5,19 8,-3 7,-12 7,-19 -4,0 -8,0 -12,0l0 0zm520 -1c0,4 0,8 0,12 10,2 20,4 30,4 -3,-13 -20,-12 -30,-16l0 0zm-608 9c0,3 0,6 1,9 5,5 10,10 17,13 0,-8 -3,-16 -8,-22 -4,0 -7,0 -10,0l0 0zm55 3c-7,10 -14,23 -7,36 -2,5 -4,11 -5,17 10,1 16,-8 19,-17 2,-7 -6,-8 -11,-10 4,-6 7,-12 11,-18 -2,-3 -2,-11 -7,-8l0 0zm532 21c12,4 16,-9 15,-18 -10,-8 -12,12 -15,18l0 0zm-568 12c-5,-3 -9,-7 -14,-10 1,7 3,18 11,19 1,-2 2,-6 2,-8 5,0 9,0 13,0 -4,9 -9,17 -13,26 -3,-3 -6,-6 -9,-10 0,4 1,8 2,12 14,4 19,-10 27,-18 0,-2 0,-5 0,-7 -3,-2 -5,-5 -8,-7 2,-7 4,-14 5,-22 -11,4 -13,16 -16,25l0 0zm595 -17c1,4 3,10 8,12 6,2 11,-3 16,-5 5,5 11,5 17,2 -1,-2 -4,-7 -5,-9 -5,2 -12,0 -15,7 -7,-4 -13,-11 -21,-7l0 0zm-546 0c-2,5 -1,10 0,15 8,0 15,0 22,0 0,-3 -1,-6 -1,-9 -7,-2 -14,-4 -21,-6l0 0zm473 7c6,6 12,13 22,13 -3,-9 -13,-12 -22,-13l0 0zm59 3c-1,9 -7,18 -2,27 11,-3 12,-16 15,-25 -4,0 -8,-1 -13,-2l0 0zm-24 3c-4,6 -6,13 -6,20 4,6 16,5 16,13 -3,10 5,16 11,23 6,-13 1,-28 -13,-34 0,-7 1,-19 -8,-22l0 0zm-162 12c-28,5 -57,5 -84,16 -41,5 -82,11 -123,16 0,2 -1,6 -1,7 44,-6 87,-9 131,-16 56,-7 113,-15 169,-20 5,0 10,-1 14,-3 0,-2 -1,-8 -2,-11 -35,0 -70,8 -104,11l0 0zm207 -4c1,3 1,7 2,10 10,7 21,7 32,9 0,-3 -1,-7 -2,-10 -10,-3 -21,-6 -32,-9l0 0zm-553 3c1,7 2,13 5,19 9,-3 19,-4 28,-5 2,-3 3,-6 3,-9 -6,0 -13,1 -20,4 -6,-2 -11,-6 -16,-9l0 0zm544 11c0,9 0,17 -1,26 19,5 19,-29 1,-26l0 0zm-556 4c-2,8 -4,15 -5,23 10,-4 12,-15 12,-24 -2,1 -6,1 -7,1l0 0zm-25 26c1,2 4,5 6,7 0,6 1,13 4,19 1,0 5,0 6,0 1,-6 1,-13 2,-20 -3,0 -7,-2 -9,-3 -5,-8 -1,-18 -2,-28 -10,5 -7,16 -7,25l0 0zm605 -16c1,1 1,5 1,6 7,4 14,8 21,12 0,-2 0,-6 0,-8 -7,-5 -14,-8 -22,-10l0 0zm32 1c0,3 1,6 1,9 4,0 9,1 13,1 -1,-3 -1,-6 -2,-9 -4,-1 -8,-1 -12,-1l0 0zm-598 2c5,12 18,18 30,14 7,-3 0,-8 -3,-12 -9,0 -18,-1 -27,-2l0 0zm323 21c-11,2 -23,-1 -33,4 -8,20 -14,42 -25,61 24,1 43,-16 65,-22 12,5 22,15 34,21 47,-8 94,-19 142,-18 -5,-13 -16,-23 -20,-37 -3,-9 -8,-18 -14,-26 -49,6 -100,10 -149,17l0 0zm238 6c7,2 16,4 18,12 5,0 11,0 16,0 0,-6 -4,-10 -10,-11 -11,-1 -9,-18 -20,-17 -8,0 -6,11 -4,16l0 0zm-571 -11c-1,4 -2,9 -2,13 4,0 7,0 11,0 2,-5 3,-10 5,-15 -5,0 -10,0 -14,2l0 0zm548 -3c-1,4 -3,8 -3,12 3,4 9,4 13,6 0,-8 -4,-14 -10,-18l0 0zm70 23c-2,2 -4,4 -6,7 -1,2 -1,6 -1,8 9,-3 17,-8 26,-13 -6,-1 -12,-2 -19,-2l0 0zm617 159c19,1 38,0 56,0 4,-16 9,-31 14,-47 9,0 18,0 28,0 7,16 15,32 23,47 19,0 38,0 56,0 -7,-16 -14,-32 -23,-48 12,-6 25,-12 32,-24 5,-14 10,-29 8,-44 -3,-14 -17,-21 -30,-21 -43,-1 -87,0 -130,0 -12,45 -22,91 -34,137l0 0zm308 -99c-4,15 -7,30 -11,45 -3,11 -8,24 -2,35 7,14 24,19 38,19 24,1 48,1 72,0 17,0 33,-8 46,-19 9,-10 10,-26 14,-38 -19,0 -38,0 -57,0 -3,8 -3,24 -15,23 -13,1 -27,2 -39,-1 -1,-1 -2,-4 -3,-5 1,-16 7,-32 11,-48 2,-7 4,-18 13,-18 13,-2 27,-1 41,1 0,6 0,13 1,19 19,-1 38,0 57,0 0,-12 6,-26 -3,-36 -10,-12 -26,-17 -41,-16 -25,0 -51,-1 -76,1 -20,4 -40,17 -46,38l0 0zm287 -19c-16,16 -14,40 -21,59 -2,14 -11,28 -3,42 6,9 18,16 29,16 22,1 44,1 65,2 21,1 41,9 61,13 5,-26 12,-51 18,-77 -19,-1 -38,-1 -57,-1 -4,11 -3,25 -15,30 -13,2 -27,2 -40,0 -9,-5 -4,-16 -2,-24 5,-14 6,-29 13,-43 4,-6 13,-5 19,-6 10,1 20,-1 30,3 4,5 1,11 1,17 18,1 37,1 55,1 5,-4 4,-11 5,-16 4,-20 -17,-35 -35,-35 -26,-1 -51,-1 -76,-1 -18,0 -35,9 -47,20l0 0zm304 -17c-11,4 -21,10 -29,19 -9,10 -10,25 -14,38 -3,15 -8,30 -10,45 -3,25 27,36 48,34 23,-1 46,0 69,-1 19,0 36,-9 47,-24 10,-19 12,-41 17,-61 3,-13 8,-29 -3,-40 -15,-17 -40,-12 -61,-13 -21,1 -43,-3 -64,3l0 0zm-763 165c-2,1 -5,2 -6,3 28,3 55,-3 82,-6 -25,0 -51,1 -76,3l0 0zm-921 18c-76,6 -152,8 -229,15 76,-2 151,-3 227,-10 9,1 19,2 29,2 9,-4 18,-5 26,-11 -18,1 -35,2 -53,4l0 0zm1893 2l-3 1c1,7 7,13 10,19 2,0 5,0 7,1 0,1 0,3 0,4 1,1 4,1 5,1 1,-7 1,-14 2,-20 1,2 3,5 3,7 4,-5 8,-11 12,-16 -12,0 -25,-2 -36,3l0 0zm-9 36c-5,5 -6,13 -9,20 1,2 3,7 4,9 4,-7 9,-13 14,-20 -1,-2 -4,-6 -6,-8 4,-3 7,-7 7,-12 -4,3 -9,6 -10,11l0 0zm-174 90c3,2 11,0 10,-4 -3,-4 -12,-1 -10,4z"/>
     </g>
     <path class="fil3" d="M1564 305c2,-9 3,-25 17,-23 32,3 64,11 96,15 17,3 34,4 51,8 7,2 8,11 9,17 3,35 4,69 7,104 1,19 3,37 2,56 -53,-3 -106,-8 -158,-15 -20,-3 -40,-3 -59,-7 4,-53 23,-104 35,-155z"/>
     <path class="fil3" d="M1782 316c47,2 93,12 138,23 12,2 12,15 13,24 5,47 17,94 16,142 -18,-1 -36,-5 -53,-7 -30,-3 -60,-5 -90,-8 -8,0 -7,-9 -8,-14 -6,-53 -13,-107 -16,-160z"/>
     <path class="fil3" d="M2099 362c5,-4 10,-9 17,-4 -2,9 -9,12 -18,12 0,-3 1,-5 1,-8z"/>
     <path class="fil3" d="M2360 412c6,-4 12,-7 18,-11 1,6 5,12 4,18 -3,2 -7,6 -9,9 -1,-2 -3,-4 -5,-5l2 6 -7 -1c2,2 3,3 5,4 -4,4 -8,9 -13,13 1,-11 2,-22 5,-33z"/>
     <path class="fil3" d="M2275 409c3,2 6,4 9,6 4,-2 8,-4 12,-6 0,2 -1,6 -2,8 11,-3 15,6 19,14 -2,6 -3,13 -5,20 -4,7 -10,13 -16,19 2,2 7,4 9,6 -4,5 -10,7 -15,9 -1,2 -1,6 -2,7 -9,4 -25,11 -31,-1 -8,-10 -8,-24 -7,-37 2,2 5,4 6,5 2,-6 10,-12 5,-17 -5,-6 -8,-12 -8,-19 5,0 10,2 14,5 7,-5 12,-11 12,-19z"/>
     <path class="fil3" d="M2088 462c2,3 5,4 8,6 0,5 -4,9 -8,12 -3,-1 -7,-2 -10,-3l6 0c-2,-5 2,-10 4,-15z"/>
     <path class="fil3" d="M2616 477c20,0 39,-1 58,1 9,8 0,20 -5,28 -20,0 -39,1 -59,1 2,-10 4,-20 6,-30z"/>
     <path class="fil3" d="M2806 532c9,-17 15,-35 24,-52 1,17 -1,34 -2,51 -7,1 -15,1 -22,1z"/>
     <path class="fil3" d="M1449 731c18,-3 37,-2 55,-1 11,0 16,12 15,22 -3,18 -8,35 -13,53 -8,29 -13,60 -23,89 -3,7 -6,16 -13,20 -14,7 -30,6 -45,6 -11,-1 -24,0 -32,-10 -5,-14 3,-29 6,-44 8,-33 16,-65 25,-98 3,-15 9,-32 25,-37z"/>
     <path class="fil3" d="M2678 731c15,-3 30,-2 45,-2 8,1 20,2 23,12 2,12 -3,24 -5,36 -10,33 -17,67 -26,101 -3,11 -6,24 -14,33 -16,12 -36,8 -54,8 -10,1 -24,-1 -27,-12 -1,-17 6,-34 10,-51 7,-32 17,-65 25,-98 2,-12 11,-24 23,-27z"/>
     <path class="fil3" d="M3256 915c16,-62 33,-123 48,-186 23,0 46,0 70,1 9,0 16,6 18,14 1,17 -6,33 -9,49 -7,33 -18,64 -25,97 -3,15 -18,24 -33,25 -23,1 -46,0 -69,0z"/>
     <path class="fil3" d="M2309 796c4,-20 10,-39 15,-59 30,1 61,-1 91,0 12,3 8,17 6,25 -3,14 -7,32 -23,34 -30,1 -59,1 -89,0z"/>
     <path class="fil3" d="M3005 781c6,-13 11,-26 18,-37 -1,36 -6,72 -7,108 -13,0 -27,0 -41,0 8,-25 21,-47 30,-71z"/>
     <path class="fil3" d="M3505 1048c1,-4 2,-9 4,-13 1,5 5,10 9,13 -4,0 -9,0 -13,0z"/>
     <path class="fil3" d="M2683 1077c14,-8 31,-5 47,-3 12,8 0,23 -1,34 -4,13 -1,32 -16,37 -15,1 -32,4 -45,-3 0,-22 10,-43 15,-65z"/>
     <path class="fil3" d="M1840 1097c2,-7 4,-15 6,-22 18,1 36,-1 53,1 7,5 1,15 -2,20 -19,2 -38,1 -57,1z"/>
     <path class="fil3" d="M3108 1212c3,4 6,9 7,14 -3,1 -7,1 -11,1 1,-5 1,-10 4,-15z"/>
     <path class="fil3" d="M3173 1216c7,-2 14,-4 21,-5 4,2 5,7 8,11 5,8 15,14 15,25 -8,4 -13,12 -16,20l6 0 0 3 -6 -2c0,3 1,10 1,14 -14,-3 -12,-20 -22,-27 3,2 7,5 10,8 7,-6 6,-16 7,-25 -9,0 -20,-8 -13,-17 -4,0 -8,-2 -11,-5z"/>
     <path class="fil3" d="M3054 1217c2,0 5,0 7,0 0,3 0,7 1,11 -5,0 -9,0 -14,0 2,-4 4,-7 6,-11z"/>
     <path class="fil3" d="M3221 1240c-6,0 -6,-10 1,-10 6,0 5,10 -1,10z"/>
     <path class="fil3" d="M3161 1235c6,0 12,-1 17,-1 -1,2 -2,5 -4,7 -4,0 -8,0 -13,1 0,-2 0,-5 0,-7z"/>
     <path class="fil3" d="M3272 1258c1,-7 3,-13 8,-18 1,2 3,6 4,8 1,6 7,7 12,9l5 2c-3,2 -8,6 -11,7 -2,-3 -5,-6 -7,-9 -3,0 -8,1 -11,1z"/>
     <path class="fil3" d="M3010 1247c2,1 7,1 9,1 1,3 2,8 3,10 -3,3 -9,8 -13,3 0,-5 1,-9 1,-14z"/>
     <path class="fil3" d="M3379 1249c1,-7 17,-4 12,3 -4,2 -10,1 -12,-3z"/>
     <path class="fil3" d="M3438 1275c-3,-12 7,-21 15,-28 5,2 10,3 15,4 4,11 19,21 8,33 -1,3 -3,6 -4,9 4,5 6,11 4,18 -3,-1 -9,-2 -12,-3 -3,-2 -6,-5 -9,-7 0,-11 -18,-14 -17,-26z"/>
     <path class="fil3" d="M3098 1261c2,1 5,2 7,2 0,7 -2,14 -4,22 -3,3 -7,7 -10,11 -3,-13 5,-23 7,-35z"/>
     <path class="fil3" d="M3121 1261c3,3 5,9 11,9 4,-2 9,-5 14,-7 5,1 8,4 13,6 -9,0 -17,0 -26,0 0,2 1,6 1,8 -5,-5 -12,-9 -13,-16z"/>
     <path class="fil3" d="M3378 1258c14,1 35,-1 39,18 -8,5 -16,0 -24,-2 -7,-2 -17,-6 -15,-16z"/>
     <path class="fil3" d="M3306 1265c5,-1 7,4 10,7 0,3 -1,8 -1,11 8,-1 13,3 17,8 6,10 13,17 20,26 3,5 -6,5 -8,7 -1,4 -2,8 -3,13 0,7 8,5 13,6 0,1 1,4 1,6 -9,-5 -20,-8 -29,-12 -5,4 -14,10 -17,2 -3,-17 -20,-33 -10,-51 2,-1 6,-3 8,-3 0,-7 -1,-14 -1,-20z"/>
     <path class="fil3" d="M3173 1281c-2,-7 -4,-17 7,-17 3,6 5,11 8,17 -4,3 -8,7 -14,7l-1 -7z"/>
     <path class="fil3" d="M3023 1276c4,0 8,1 13,0 -1,5 -1,11 -1,16 -5,-5 -9,-10 -12,-16z"/>
     <path class="fil3" d="M2890 1295c7,-5 13,-10 20,-16 2,0 8,1 11,1 2,3 4,6 5,9 2,1 6,4 8,5 -7,5 -14,-5 -21,0 3,2 6,4 9,6 -9,6 -13,20 -25,21 4,-6 10,-12 5,-19 -1,1 -3,4 -4,5 -2,-4 -5,-8 -8,-12z"/>
     <path class="fil3" d="M3205 1286c7,-2 13,-3 20,-4 -1,10 -11,17 -20,21 0,-6 0,-11 0,-17z"/>
     <path class="fil3" d="M3356 1281c6,4 12,7 14,14 -4,2 -7,3 -11,5 -4,-6 -5,-12 -3,-19z"/>
     <path class="fil3" d="M3235 1294c17,-9 24,20 11,27 -3,0 -8,-1 -11,-1 -1,-2 -3,-5 -4,-7 0,-3 0,-9 0,-12 1,-2 3,-5 4,-7z"/>
     <path class="fil3" d="M3128 1303c2,0 5,1 8,1 5,-1 14,-4 15,4 5,-3 10,-5 16,-5 2,4 5,9 7,13 -3,6 -6,11 -10,17 4,6 13,11 10,20 -4,-3 -9,-5 -14,-6 -6,14 -22,5 -31,-1 -11,-9 -14,-22 -14,-35 6,-2 13,-3 19,-3 -1,-1 -5,-4 -6,-5z"/>
     <path class="fil3" d="M3037 1307c1,0 5,0 7,0 0,2 -1,5 -1,7 -2,1 -5,1 -7,1 0,-2 0,-6 1,-8z"/>
     <path class="fil3" d="M3088 1317c3,0 7,0 11,0 5,11 8,23 7,36 -1,-1 -3,-2 -4,-3 3,-5 3,-12 0,-18l-8 5c2,-2 5,-6 6,-8 -8,0 -13,-4 -12,-12z"/>
     <path class="fil3" d="M3068 1328c3,-1 9,-3 12,-4 5,14 0,39 -19,40 0,-2 -2,-5 -2,-7 -2,-4 -4,-8 -5,-11 -5,2 -9,4 -14,6l-3 -1c-1,-1 -1,-14 -6,-9 -4,5 -7,10 -9,16 -3,-6 -5,-12 -7,-18 2,2 7,6 10,7 2,-5 4,-10 6,-15l-6 1 0 -2c3,0 7,0 11,0 1,2 3,5 4,6 4,1 8,2 12,3 2,3 4,6 7,9 0,-7 -3,-14 -6,-20 5,0 10,0 15,-1z"/>
     <path class="fil3" d="M3190 1342c5,-3 10,-6 14,-9 2,2 5,6 7,7l2 2c-4,5 -8,10 -12,14 -3,-4 -7,-9 -11,-14z"/>
     <path class="fil3" d="M3233 1337c4,2 8,4 12,6 -2,3 -3,7 -4,10l0 -3c-4,-3 -6,-8 -8,-13z"/>
     <path class="fil3" d="M2610 1349c4,9 4,19 4,29 2,0 6,2 8,3 -7,-2 -12,-7 -19,-8 -2,-1 -5,-4 -7,-5 2,-4 4,-7 6,-11 3,2 7,4 9,5 0,-3 -1,-10 -1,-13z"/>
     <path class="fil3" d="M3188 1353c8,4 13,12 17,20 -6,0 -12,1 -16,-4 -4,-5 -1,-11 -1,-16z"/>
     <path class="fil3" d="M3234 1372c10,-8 19,-18 33,-16 7,8 9,19 2,29 5,-1 13,-5 15,2 1,3 1,8 -3,9 -6,-1 -9,-6 -11,-11 -5,4 -11,8 -17,9 -7,-7 -22,-11 -19,-22z"/>
     <path class="fil3" d="M2808 1374c4,-2 8,-3 12,-5 5,12 -4,22 -9,32 -6,-1 -12,0 -17,-4 6,0 12,0 18,0 -2,-8 -4,-15 -4,-23z"/>
     <path class="fil3" d="M2834 1386c1,-4 3,-8 5,-11 0,7 -3,13 -8,18 2,1 5,4 7,6 -4,0 -8,1 -12,1 -2,-3 -5,-5 -4,-9 4,-2 8,-3 12,-5z"/>
     <path class="fil3" d="M2699 1400c5,-1 10,-2 15,-3 0,2 0,6 -1,9 -4,-2 -9,-4 -14,-6z"/>
     <path class="fil3" d="M2685 1400c7,-3 9,11 3,13 -6,-1 -6,-10 -3,-13z"/>
     <path class="fil3" d="M3236 1402c2,1 6,1 8,2 0,2 0,5 0,7 -1,0 -5,0 -7,0 0,-2 -1,-7 -1,-9z"/>
     <path class="fil3" d="M3254 1404c3,0 6,0 10,1 4,7 6,16 0,24 -11,-3 -12,-15 -10,-25z"/>
     <path class="fil3" d="M2793 1409c6,2 5,11 13,11 -7,4 -19,-3 -13,-11z"/>
     <path class="fil3" d="M2767 1457c8,-5 16,-10 23,-15 0,3 0,6 0,10 -5,0 -9,1 -14,1 0,3 1,10 1,14 -4,-1 -8,-1 -12,0 4,-2 5,-6 2,-10z"/>
     <path class="fil3" d="M2655 1448c2,1 6,1 7,1 1,4 1,7 1,11 -2,0 -6,0 -8,-1 0,-3 0,-7 0,-11z"/>
     <path class="fil3" d="M2668 1506c3,0 8,1 11,1 1,7 -4,8 -9,9 -1,-3 -2,-8 -2,-10z"/>
    </g>
    <g id="__x0023_f26f05ff">
     <path class="fil4" d="M1342 268c47,-7 94,-14 141,-20 22,-1 44,-6 66,-1 -19,62 -38,124 -54,186 -7,25 -16,49 -16,75 -12,0 -24,0 -36,0 -2,-12 -2,-25 -9,-36 -7,-11 -20,-18 -33,-20 -23,-4 -47,-3 -70,-5 -32,-3 -64,0 -97,-2 75,-5 150,-11 225,-14 9,0 12,-11 15,-18 7,-25 17,-48 24,-73 7,-26 19,-51 19,-79 -48,2 -96,11 -145,16 -65,10 -131,18 -194,36 -24,5 -46,13 -69,19 3,-6 7,-11 14,-13 16,-8 34,-13 51,-17 56,-12 111,-26 168,-34z"/>
     <g>
      <path class="fil4" d="M1558 247c21,1 41,6 61,9 91,13 182,28 273,44 15,3 32,5 46,11 5,2 10,6 11,11 1,17 5,33 9,50 2,16 5,32 6,48 5,19 9,38 10,58 -1,19 4,37 3,56 -33,-1 -66,-2 -99,-3 -86,-1 -173,-10 -260,-9 61,10 123,13 184,18 78,7 155,12 232,21 42,5 84,7 126,13 3,10 4,20 5,30 -224,0 -448,-1 -672,0 -1,-48 -10,-97 4,-144 13,-50 29,-99 43,-148 6,-22 10,-44 18,-65l0 0zm6 58c-12,51 -31,102 -35,155 19,4 39,4 59,7 52,7 105,12 158,15 1,-19 -1,-37 -2,-56 -3,-35 -4,-69 -7,-104 -1,-6 -2,-15 -9,-17 -17,-4 -34,-5 -51,-8 -32,-4 -64,-12 -96,-15 -14,-2 -15,14 -17,23l0 0zm218 11c3,53 10,107 16,160 1,5 0,14 8,14 30,3 60,5 90,8 17,2 35,6 53,7 1,-48 -11,-95 -16,-142 -1,-9 -1,-22 -13,-24 -45,-11 -91,-21 -138,-23z"/>
     </g>
     <g>
      <path class="fil4" d="M2567 437c48,1 97,-1 146,1 16,1 30,17 24,33 -6,20 -6,45 -23,61 -9,8 -20,14 -32,14 -28,1 -56,0 -83,1 -6,19 -10,39 -17,57 -20,-2 -39,1 -58,-3 5,-21 9,-43 16,-64 8,-34 16,-67 27,-100l0 0zm49 40c-2,10 -4,20 -6,30 20,0 39,-1 59,-1 5,-8 14,-20 5,-28 -19,-2 -38,-1 -58,-1z"/>
     </g>
     <g>
      <path class="fil4" d="M2794 438c31,-1 63,-2 94,0 2,55 2,110 4,165 -21,1 -42,0 -63,1 1,-10 1,-19 2,-29 -17,0 -33,-1 -49,-1 -4,10 -8,20 -13,30 -21,-1 -42,0 -63,-2 19,-36 39,-72 58,-108 10,-19 18,-39 30,-56l0 0zm12 94c7,0 15,0 22,-1 1,-17 3,-34 2,-51 -9,17 -15,35 -24,52z"/>
     </g>
     <path class="fil4" d="M2950 438c20,-1 40,-1 60,-1 -5,23 -10,46 -17,69 15,-16 31,-29 44,-46 7,-8 14,-16 22,-22 20,-1 40,0 60,-1 -22,27 -48,51 -70,78 12,30 25,58 35,88 -21,0 -42,0 -63,0 -11,-25 -20,-51 -33,-75 -7,25 -14,50 -20,75 -20,1 -41,1 -61,1 14,-55 29,-111 43,-166z"/>
     <path class="fil4" d="M3146 437c51,-1 102,0 153,1 -3,11 -5,23 -8,34 -31,0 -63,-1 -94,-1 -2,9 -4,17 -6,26 29,-1 58,-2 86,-1 -3,12 -7,25 -10,38 -29,1 -57,1 -85,1 -2,10 -5,19 -8,29 31,1 63,-1 95,0 -3,14 -8,27 -12,40 -51,0 -102,-1 -153,-1 12,-55 29,-110 42,-166z"/>
     <path class="fil4" d="M3318 437c59,0 118,0 177,1 -2,11 -5,23 -9,35 -19,0 -38,-1 -58,0 -4,21 -12,41 -16,62 -5,23 -10,45 -17,67 -20,2 -40,1 -61,1 12,-43 23,-87 33,-131 -20,0 -40,0 -60,0 3,-12 7,-24 11,-35z"/>
     <path class="fil4" d="M985 462c107,-6 215,-7 322,-6 26,0 52,2 78,4 13,1 28,3 38,12 7,10 9,24 11,36 -72,1 -145,-5 -217,-5 -74,-1 -148,-2 -222,-3 -9,-8 -19,-19 -32,-20 -27,-1 -54,0 -80,0 -59,5 -117,11 -175,23 -6,1 -11,1 -17,1 67,-15 135,-26 204,-34 30,-5 60,-8 90,-8z"/>
     <path class="fil4" d="M773 503c55,-10 111,-12 167,-13 11,0 24,-4 33,4 10,8 16,20 15,32 1,36 -11,71 -16,106 -14,-8 -27,-17 -39,-29 12,-3 26,-5 33,-16 10,-17 14,-38 15,-57 0,-13 -6,-27 -17,-34 -12,-6 -26,-1 -35,9 -21,21 -25,52 -26,81 -1,-2 -5,-4 -6,-5 0,-21 8,-41 6,-61 -8,0 -18,0 -23,9 -7,15 -7,32 -9,49 -2,0 -7,0 -10,0 5,-16 9,-32 9,-48 1,-6 -8,-11 -13,-7 -6,3 -8,11 -11,17 -1,13 -4,25 -5,38 -3,1 -7,1 -11,0 2,-18 11,-35 8,-54 -13,-2 -22,10 -24,21 -2,12 -3,24 -6,35 -1,1 -5,2 -7,2 1,-15 5,-30 7,-45 0,-4 0,-13 -6,-10 -4,1 -8,1 -12,2 -4,14 -7,29 -10,43 -10,-9 -2,-24 -4,-35 2,-11 -15,-10 -18,-3 -3,10 -4,20 -8,28 -6,-9 -1,-20 -6,-30 -6,-2 -12,1 -16,4 -4,9 -4,20 -12,27 -1,-9 2,-21 -5,-28 -13,-5 -17,10 -22,19 -2,-6 -3,-12 -5,-18 -1,-1 -5,-3 -7,-4 -7,2 -15,3 -20,9 -8,8 -13,19 -21,28 2,-18 12,-37 30,-43 35,-13 71,-17 107,-23z"/>
     <path class="fil4" d="M998 509c57,1 114,4 171,3 103,2 206,6 310,7 5,28 2,57 2,85 -25,0 -51,0 -77,1 -11,-11 -14,-28 -24,-41 -8,-4 -16,-4 -25,-4 -87,-1 -175,-4 -262,-5 -16,0 -38,-5 -48,10 -16,29 -27,61 -43,89 -7,-4 -16,-9 -20,-17 1,-18 6,-36 9,-54 2,-24 13,-49 7,-74z"/>
     <path class="fil4" d="M735 601c3,0 6,-1 10,-1 -1,7 -1,13 -1,20 -10,-2 -9,-12 -9,-19z"/>
     <path class="fil4" d="M676 612c2,-2 5,-4 8,-6 -1,7 -2,16 -10,18 1,-4 1,-8 2,-12z"/>
     <g>
      <path class="fil4" d="M1763 1179c12,-46 22,-92 34,-137 43,0 87,-1 130,0 13,0 27,7 30,21 2,15 -3,30 -8,44 -7,12 -20,18 -32,24 9,16 16,32 23,48 -18,0 -37,0 -56,0 -8,-15 -16,-31 -23,-47 -10,0 -19,0 -28,0 -5,16 -10,31 -14,47 -18,0 -37,1 -56,0l0 0zm77 -82c19,0 38,1 57,-1 3,-5 9,-15 2,-20 -17,-2 -35,0 -53,-1 -2,7 -4,15 -6,22z"/>
     </g>
     <path class="fil4" d="M2071 1080c6,-21 26,-34 46,-38 25,-2 51,-1 76,-1 15,-1 31,4 41,16 9,10 3,24 3,36 -19,0 -38,-1 -57,0 -1,-6 -1,-13 -1,-19 -14,-2 -28,-3 -41,-1 -9,0 -11,11 -13,18 -4,16 -10,32 -11,48 1,1 2,4 3,5 12,3 26,2 39,1 12,1 12,-15 15,-23 19,0 38,0 57,0 -4,12 -5,28 -14,38 -13,11 -29,19 -46,19 -24,1 -48,1 -72,0 -14,0 -31,-5 -38,-19 -6,-11 -1,-24 2,-35 4,-15 7,-30 11,-45z"/>
     <path class="fil4" d="M2358 1061c12,-11 29,-20 47,-20 25,0 50,0 76,1 18,0 39,15 35,35 -1,5 0,12 -5,16 -18,0 -37,0 -55,-1 0,-6 3,-12 -1,-17 -10,-4 -20,-2 -30,-3 -6,1 -15,0 -19,6 -7,14 -8,29 -13,43 -2,8 -7,19 2,24 13,2 27,2 40,0 12,-5 11,-19 15,-30 19,0 38,0 57,1 -6,26 -13,51 -18,77 -20,-4 -40,-12 -61,-13 -21,-1 -43,-1 -65,-2 -11,0 -23,-7 -29,-16 -8,-14 1,-28 3,-42 7,-19 5,-43 21,-59z"/>
     <g>
      <path class="fil4" d="M2662 1044c21,-6 43,-2 64,-3 21,1 46,-4 61,13 11,11 6,27 3,40 -5,20 -7,42 -17,61 -11,15 -28,24 -47,24 -23,1 -46,0 -69,1 -21,2 -51,-9 -48,-34 2,-15 7,-30 10,-45 4,-13 5,-28 14,-38 8,-9 18,-15 29,-19l0 0zm21 33c-5,22 -15,43 -15,65 13,7 30,4 45,3 15,-5 12,-24 16,-37 1,-11 13,-26 1,-34 -16,-2 -33,-5 -47,3z"/>
     </g>
    </g>
    <g id="__x0023_767268ff">
     <path class="fil5" d="M2141 359c4,-5 8,-10 14,-13 3,9 -6,13 -14,13z"/>
     <path class="fil5" d="M2291 352c5,-4 10,4 5,8 -5,4 -10,-5 -5,-8z"/>
     <path class="fil5" d="M2025 364c5,-1 7,1 6,6 -6,2 -8,0 -6,-6z"/>
     <path class="fil5" d="M2117 421c13,-6 4,18 -2,6 1,-2 2,-5 2,-6z"/>
     <path class="fil5" d="M2434 560c2,6 3,12 4,18 -5,1 -8,-1 -12,-3 4,-4 5,-10 8,-15z"/>
     <path class="fil5" d="M2457 563l2 -2c-3,5 -5,11 -6,17 5,-1 10,-1 15,-2 1,2 1,5 2,6 -5,0 -9,-1 -14,-1 1,4 1,10 1,14 -3,0 -11,0 -14,0 3,-11 3,-25 14,-32z"/>
     <path class="fil5" d="M626 602c9,9 12,21 16,32 -9,-8 -14,-20 -16,-32z"/>
     <path class="fil5" d="M704 604c3,-1 7,-1 11,-2 -1,6 -1,12 -2,17 -3,0 -6,0 -10,0 0,-5 1,-10 1,-15z"/>
     <path class="fil5" d="M768 607c8,-4 8,11 2,12 -6,-1 -6,-9 -2,-12z"/>
     <path class="fil5" d="M794 704c27,-2 54,-2 80,-3 5,0 8,4 12,6 -34,-1 -69,1 -103,1 3,-2 7,-3 11,-4z"/>
     <path class="fil5" d="M1025 804c-1,-8 1,-15 7,-20 3,5 5,10 10,15 0,3 0,8 0,11 9,-2 12,-14 22,-13 0,7 -2,14 -5,20 2,1 6,2 8,2 2,15 -12,24 -23,30 3,-10 5,-19 7,-28 -7,-2 -14,-5 -20,-2 1,5 4,9 8,12 -6,10 -10,23 -21,28 0,-6 0,-13 1,-20 -3,0 -9,1 -12,1 -2,-2 -4,-5 -6,-7 0,-4 0,-8 0,-11 6,1 12,3 18,5 0,-3 0,-9 -1,-11 -2,-1 -7,-2 -10,-2 0,-6 -3,-15 3,-20 5,2 9,7 14,10z"/>
     <path class="fil5" d="M889 809c14,-1 27,-6 41,-10 -28,25 -67,15 -100,18 -57,0 -114,1 -170,3 -22,1 -44,-1 -66,2 -13,0 -27,3 -39,-3 30,-1 61,1 91,-3 51,-1 102,2 152,-4 30,0 60,-2 91,-3z"/>
     <path class="fil5" d="M1073 807c6,1 12,4 15,10 -1,8 -10,5 -15,6 0,-6 0,-11 0,-16z"/>
     <path class="fil5" d="M491 829c2,0 6,0 8,0 0,3 0,8 0,11 13,-7 28,0 37,9 1,3 2,7 3,9 8,6 15,13 22,20 0,2 1,6 1,8 -7,2 -17,1 -19,-7 -1,-6 1,-13 -5,-16 -10,0 -12,15 -22,17 0,-2 0,-7 0,-9 6,-8 12,-15 15,-25 -2,1 -8,1 -11,1 -1,-2 -2,-4 -3,-6 -6,1 -10,8 -15,11 0,-2 0,-8 0,-11 -3,-1 -7,-2 -10,-2 0,-3 0,-7 -1,-10z"/>
     <path class="fil5" d="M1072 835c12,1 26,10 23,23 -7,-1 -14,-3 -21,-5 -1,-6 -5,-12 -2,-18z"/>
     <path class="fil5" d="M1000 848c8,5 16,11 15,21 0,5 -7,8 -10,4 -7,-6 -4,-17 -5,-25z"/>
     <path class="fil5" d="M482 854c3,0 7,-1 11,-2 0,6 -1,11 -1,17 -3,-5 -11,-8 -10,-15z"/>
     <path class="fil5" d="M492 881c4,-11 11,-21 21,-26 1,12 -8,21 -16,29 -2,3 -8,0 -5,-3z"/>
     <path class="fil5" d="M1042 879c8,-7 9,-17 11,-26 3,1 9,2 11,3 -2,12 -8,22 -13,32 -2,0 -7,-2 -9,-2 0,-2 0,-6 0,-7z"/>
     <path class="fil5" d="M1017 893c0,-13 6,-30 19,-34 0,10 -3,20 -8,29 -2,5 -7,4 -11,5z"/>
     <path class="fil5" d="M1070 870c11,0 20,11 18,22 -4,0 -7,0 -11,0 -4,-7 -8,-14 -7,-22z"/>
     <path class="fil5" d="M512 915c1,-14 6,-29 19,-36 6,15 -8,29 -19,36z"/>
     <path class="fil5" d="M1093 882c4,-4 9,-5 14,-4 3,6 1,18 -8,13 -1,-2 -5,-6 -6,-9z"/>
     <path class="fil5" d="M999 883c10,3 17,12 20,22 -12,4 -20,-12 -20,-22z"/>
     <path class="fil5" d="M487 916c5,-11 11,-22 19,-30 2,11 -4,21 -10,30 -2,0 -7,0 -9,0z"/>
     <path class="fil5" d="M1054 892c1,-7 9,-4 13,-4 1,13 -5,25 -16,32 -11,-7 0,-20 3,-28z"/>
     <path class="fil5" d="M1020 919c5,-10 6,-23 17,-29 6,9 0,19 -2,28 15,4 7,26 -5,28 1,-8 5,-15 5,-23 -4,-1 -9,-2 -13,-2 0,2 0,7 -1,9 -1,0 -5,0 -7,0 -4,-6 -7,-12 -8,-19 5,3 9,5 14,8z"/>
     <path class="fil5" d="M536 897c4,1 7,2 11,2 0,6 0,11 1,17 -4,0 -8,0 -11,0 0,-6 -1,-12 -1,-19z"/>
     <path class="fil5" d="M556 905c4,0 8,0 12,0 0,7 1,16 -7,19 -3,-6 -4,-12 -5,-19z"/>
     <path class="fil5" d="M1076 904c10,4 27,3 30,16 -10,0 -20,-2 -30,-4 0,-4 0,-8 0,-12z"/>
     <path class="fil5" d="M468 913c3,0 6,0 10,0 5,6 8,14 8,22 -7,-3 -12,-8 -17,-13 -1,-3 -1,-6 -1,-9z"/>
     <path class="fil5" d="M523 916c5,-3 5,5 7,8 -4,6 -7,12 -11,18 5,2 13,3 11,10 -3,9 -9,18 -19,17 1,-6 3,-12 5,-17 -7,-13 0,-26 7,-36z"/>
     <path class="fil5" d="M1055 937c3,-6 5,-26 15,-18 1,9 -3,22 -15,18z"/>
     <path class="fil5" d="M487 949c3,-9 5,-21 16,-25 -1,8 -3,15 -5,22 3,2 5,5 8,7 0,2 0,5 0,7 -8,8 -13,22 -27,18 -1,-4 -2,-8 -2,-12 3,4 6,7 9,10 4,-9 9,-17 13,-26 -4,0 -8,0 -13,0 0,2 -1,6 -2,8 -8,-1 -10,-12 -11,-19 5,3 9,7 14,10z"/>
     <path class="fil5" d="M1082 932c8,-4 14,3 21,7 3,-7 10,-5 15,-7 1,2 4,7 5,9 -6,3 -12,3 -17,-2 -5,2 -10,7 -16,5 -5,-2 -7,-8 -8,-12z"/>
     <path class="fil5" d="M536 932c7,2 14,4 21,6 0,3 1,6 1,9 -7,0 -14,0 -22,0 -1,-5 -2,-10 0,-15z"/>
     <path class="fil5" d="M1009 939c9,1 19,4 22,13 -10,0 -16,-7 -22,-13z"/>
     <path class="fil5" d="M1068 942c5,1 9,2 13,2 -3,9 -4,22 -15,25 -5,-9 1,-18 2,-27z"/>
     <path class="fil5" d="M1044 945c9,3 8,15 8,22 14,6 19,21 13,34 -6,-7 -14,-13 -11,-23 0,-8 -12,-7 -16,-13 0,-7 2,-14 6,-20z"/>
     <path class="fil5" d="M1089 953c11,3 22,6 32,9 1,3 2,7 2,10 -11,-2 -22,-2 -32,-9 -1,-3 -1,-7 -2,-10z"/>
     <path class="fil5" d="M536 956c5,3 10,7 16,9 7,-3 14,-4 20,-4 0,3 -1,6 -3,9 -9,1 -19,2 -28,5 -3,-6 -4,-12 -5,-19z"/>
     <path class="fil5" d="M1080 967c18,-3 18,31 -1,26 1,-9 1,-17 1,-26z"/>
     <path class="fil5" d="M524 971c1,0 5,0 7,-1 0,9 -2,20 -12,24 1,-8 3,-15 5,-23z"/>
     <path class="fil5" d="M499 997c0,-9 -3,-20 7,-25 1,10 -3,20 2,28 2,1 6,3 9,3 -1,7 -1,14 -2,20 -1,0 -5,0 -6,0 -3,-6 -4,-13 -4,-19 -2,-2 -5,-5 -6,-7z"/>
     <path class="fil5" d="M1104 981c8,2 15,5 22,10 0,2 0,6 0,8 -7,-4 -14,-8 -21,-12 0,-1 0,-5 -1,-6z"/>
     <path class="fil5" d="M1136 982c4,0 8,0 12,1 1,3 1,6 2,9 -4,0 -9,-1 -13,-1 0,-3 -1,-6 -1,-9z"/>
     <path class="fil5" d="M538 984c9,1 18,2 27,2 3,4 10,9 3,12 -12,4 -25,-2 -30,-14z"/>
     <path class="fil5" d="M1099 1011c-2,-5 -4,-16 4,-16 11,-1 9,16 20,17 6,1 10,5 10,11 -5,0 -11,0 -16,0 -2,-8 -11,-10 -18,-12z"/>
     <path class="fil5" d="M528 1000c4,-2 9,-2 14,-2 -2,5 -3,10 -5,15 -4,0 -7,0 -11,0 0,-4 1,-9 2,-13z"/>
     <path class="fil5" d="M1076 997c6,4 10,10 10,18 -4,-2 -10,-2 -13,-6 0,-4 2,-8 3,-12z"/>
     <path class="fil5" d="M461 1000c6,9 4,21 3,32 -5,-4 -11,-9 -15,-13 3,0 9,1 12,2 0,-7 0,-14 0,-21z"/>
     <path class="fil5" d="M406 1011c1,-2 2,-6 2,-8 6,9 12,19 20,25 0,-3 0,-10 1,-13 1,5 2,11 1,16 -12,4 -17,-12 -24,-20z"/>
     <path class="fil5" d="M1146 1020c7,0 13,1 19,2 -9,5 -17,10 -26,13 0,-2 0,-6 1,-8 2,-3 4,-5 6,-7z"/>
     <path class="fil5" d="M3533 1078c6,0 6,8 3,11 -5,0 -5,-8 -3,-11z"/>
     <path class="fil5" d="M3451 1141c5,-1 10,-2 15,-4 0,3 1,7 2,9 -2,1 -6,2 -8,3 -3,-3 -6,-5 -9,-8z"/>
     <path class="fil5" d="M3430 1154c2,0 6,1 7,1 1,2 1,6 2,7 -2,0 -6,0 -8,0 -1,-2 -1,-6 -1,-8z"/>
     <path class="fil5" d="M3479 1182c5,-4 9,6 4,9 -5,5 -9,-6 -4,-9z"/>
     <path class="fil5" d="M1899 1209c25,-2 51,-3 76,-3 -27,3 -54,9 -82,6 1,-1 4,-2 6,-3z"/>
     <path class="fil5" d="M1902 1223c70,-8 141,-8 211,-13 17,-1 35,-4 51,0 -6,2 -13,3 -20,5 -5,6 -10,12 -14,19l-2 2c1,-3 2,-8 2,-10 -10,0 -21,4 -30,0l-4 -3c-11,-2 -23,-1 -34,0 -50,2 -100,6 -149,2 -14,2 -29,4 -43,-1 11,0 22,0 32,-1z"/>
     <path class="fil5" d="M978 1227c18,-2 35,-3 53,-4 -8,6 -17,7 -26,11 -10,0 -20,-1 -29,-2 0,-1 1,-4 2,-5z"/>
     <path class="fil5" d="M2871 1229c11,-5 24,-3 36,-3 -4,5 -8,11 -12,16 0,-2 -2,-5 -3,-7 1,-2 1,-7 1,-9 -7,1 -14,2 -22,3z"/>
     <path class="fil5" d="M2360 1245c60,5 120,-5 180,-15 -21,8 -43,15 -66,17 -47,4 -95,6 -142,-1l-2 2 -2 2c0,-2 1,-5 1,-7 10,-3 20,1 31,2z"/>
     <path class="fil5" d="M3261 1233c5,-4 8,5 3,8 -5,5 -8,-5 -3,-8z"/>
     <path class="fil5" d="M3329 1242c5,-1 10,-2 14,-3 -3,3 -6,7 -8,11 -1,-1 -3,-1 -3,-2 -1,-1 -2,-4 -3,-6z"/>
     <path class="fil5" d="M3476 1238c4,3 8,6 13,8 1,0 4,-1 6,-2 0,1 0,3 0,4 -6,0 -10,4 -13,8 -4,-2 -8,-3 -11,-4 1,-4 4,-10 5,-14z"/>
     <path class="fil5" d="M3284 1248c5,-6 16,3 12,9 -5,-2 -11,-3 -12,-9z"/>
     <path class="fil5" d="M2922 1257c0,4 1,7 1,11 -4,0 -9,0 -14,0 -7,-1 -12,5 -17,10 1,-4 3,-8 4,-12 4,-1 9,-3 14,-4l1 -1c2,2 6,4 8,5 1,-2 2,-7 3,-9z"/>
     <path class="fil5" d="M3038 1258c5,-1 6,1 5,6 -5,1 -7,-1 -5,-6z"/>
     <path class="fil5" d="M3164 1268c5,-3 10,-5 16,-4 -11,0 -9,10 -7,17 -2,2 -5,5 -6,6 1,-3 2,-9 3,-12l-6 0c0,-2 0,-5 0,-7z"/>
     <path class="fil5" d="M3232 1264c6,-2 8,0 5,6 -5,2 -7,0 -5,-6z"/>
     <path class="fil5" d="M3261 1271c1,3 1,3 0,0z"/>
     <path class="fil5" d="M3393 1274c8,2 16,7 24,2 0,1 0,3 1,4 -9,5 -20,4 -25,-6z"/>
     <path class="fil5" d="M3472 1293c1,-3 3,-6 4,-9 0,3 -1,8 -1,10 8,0 17,0 26,-1 0,5 1,9 -1,14 -8,1 -15,0 -22,5 -4,5 -10,0 -14,-4 3,1 9,2 12,3 2,-7 0,-13 -4,-18z"/>
     <path class="fil5" d="M2620 1292c3,-1 6,-3 9,-4 0,5 0,9 -1,14 -3,-3 -6,-7 -8,-10z"/>
     <path class="fil5" d="M2890 1312c0,-6 0,-11 0,-17 3,4 6,8 8,12l2 2c-4,1 -7,2 -10,3z"/>
     <path class="fil5" d="M2611 1319c1,-5 2,-10 5,-14 2,4 3,9 5,13 -3,0 -8,1 -10,1z"/>
     <path class="fil5" d="M3363 1307c12,0 -5,10 0,0z"/>
     <path class="fil5" d="M3050 1320c7,1 13,4 18,8 -5,1 -10,1 -15,1 3,6 6,13 6,20 -3,-3 -5,-6 -7,-9 -1,-7 -2,-13 -2,-20z"/>
     <path class="fil5" d="M3184 1327c2,2 2,2 0,0z"/>
     <g>
      <path class="fil5" d="M3197 1333c7,-4 14,0 14,7 -2,-1 -5,-5 -7,-7 -4,3 -9,6 -14,9 4,5 8,10 11,14 4,-4 8,-9 12,-14 1,10 -11,13 -10,23 4,-1 8,-1 13,-2 1,0 5,0 7,0 -1,5 -2,11 -3,16 -3,-2 -6,-5 -9,-9 -3,2 -6,4 -8,6 -7,0 -13,-2 -19,-6 2,-12 2,-29 13,-37l0 0zm-9 20c0,5 -3,11 1,16 4,5 10,4 16,4 -4,-8 -9,-16 -17,-20z"/>
     </g>
     <path class="fil5" d="M3362 1330c2,-4 10,0 7,4 -3,4 -11,0 -7,-4z"/>
     <path class="fil5" d="M3270 1349c2,-4 5,-7 9,-10 1,3 1,8 1,11 -3,-1 -8,-1 -10,-1z"/>
     <path class="fil5" d="M2565 1349c2,-1 7,-1 9,-1 0,4 0,8 0,12 -3,-1 -6,-3 -9,-4 0,-2 0,-6 0,-7z"/>
     <path class="fil5" d="M3040 1352c5,-2 9,-4 14,-6 1,3 3,7 5,11 -4,-2 -8,-3 -12,-5 -3,5 -6,11 -9,16 -3,1 -6,1 -9,1 0,-4 0,-9 1,-13 3,0 8,0 11,0l-1 -4z"/>
     <path class="fil5" d="M2949 1369c11,1 -6,10 0,0z"/>
     <path class="fil5" d="M2724 1379c7,-4 10,12 3,12 -5,-1 -6,-9 -3,-12z"/>
     <path class="fil5" d="M2852 1386c3,-4 12,-4 12,2 -1,5 -14,4 -12,-2z"/>
     <path class="fil5" d="M2841 1394c2,-1 7,-1 9,-1 1,5 1,10 1,14 -4,-4 -7,-9 -10,-13z"/>
     <path class="fil5" d="M2694 1424c0,-7 1,-13 5,-18 2,4 4,8 7,12 -4,2 -8,4 -12,6z"/>
     <path class="fil5" d="M2825 1414c3,0 7,1 11,1 -1,4 -1,8 -5,10 -6,-1 -6,-7 -6,-11z"/>
     <path class="fil5" d="M2746 1425c3,-3 5,-7 8,-9 -6,17 -12,34 -22,50 1,-4 2,-11 3,-15 -4,0 -10,0 -14,0 3,-3 6,-7 8,-10 2,2 7,5 9,7 3,-7 7,-15 8,-23z"/>
     <path class="fil5" d="M2686 1445c5,2 5,4 0,6 -5,-2 -5,-4 0,-6z"/>
    </g>
   </g>
  </g>
 </g>
</svg>
